<svg width="360" height="493" viewBox="0 0 360 493" fill="none" xmlns="http://www.w3.org/2000/svg">
<g clip-path="url(#clip0_573_7626)">
<rect width="360" height="493" rx="12" fill="#FFE978"/>
<path d="M67.0749 57.7023L41.3857 149.358" stroke="#008080" stroke-opacity="0.35" stroke-width="8.76444"/>
<path d="M81.0713 47.9306L181.862 61.625" stroke="#008080" stroke-opacity="0.35" stroke-width="8.76444"/>
<circle cx="69.0203" cy="47.1089" r="19.72" fill="#008080"/>
<circle cx="41.0832" cy="148.448" r="13.1467" fill="#5AAD94"/>
<circle cx="185.697" cy="61.8989" r="13.1467" fill="#5AAD94"/>
<path d="M108.703 227.158L109.794 131.977" stroke="#008080" stroke-opacity="0.35" stroke-width="8.76444"/>
<path d="M97.7124 240.22L-3.18872 253.079" stroke="#008080" stroke-opacity="0.35" stroke-width="8.76444"/>
<circle cx="109.566" cy="237.894" r="19.72" transform="rotate(165 109.566 237.894)" fill="#008080"/>
<circle cx="110.322" cy="132.778" r="13.1467" transform="rotate(165 110.322 132.778)" fill="#5AAD94"/>
<circle cx="-6.96313" cy="253.807" r="13.1467" transform="rotate(165 -6.96313 253.807)" fill="#5AAD94"/>
<path d="M271.949 26.8968L190.065 -21.6391" stroke="#008080" stroke-opacity="0.35" stroke-width="8.76444"/>
<path d="M277.765 42.9456L238.45 136.758" stroke="#008080" stroke-opacity="0.35" stroke-width="8.76444"/>
<circle cx="281.678" cy="31.5178" r="19.72" transform="rotate(105 281.678 31.5178)" fill="#008080"/>
<circle cx="237.193" cy="140.391" r="13.1467" transform="rotate(105 237.193 140.391)" fill="#5AAD94"/>
<path d="M391.797 71.0976L323.442 137.341" stroke="#008080" stroke-opacity="0.35" stroke-width="8.76444"/>
<circle cx="323.639" cy="136.403" r="13.1467" transform="rotate(30.242 323.639 136.403)" fill="#5AAD94"/>
<path d="M270.983 225.938L181.164 194.425" stroke="#008080" stroke-opacity="0.35" stroke-width="8.76444"/>
<path d="M279.837 240.532L259.708 340.238" stroke="#008080" stroke-opacity="0.35" stroke-width="8.76444"/>
<circle cx="281.43" cy="228.559" r="19.72" transform="rotate(93.6764 281.43 228.559)" fill="#008080"/>
<circle cx="182.091" cy="194.182" r="13.1467" transform="rotate(93.6764 182.091 194.182)" fill="#5AAD94"/>
<circle cx="259.189" cy="344.047" r="13.1467" transform="rotate(93.6764 259.189 344.047)" fill="#5AAD94"/>
<path d="M173.619 419.531L268.707 415.196" stroke="#008080" stroke-opacity="0.35" stroke-width="8.76444"/>
<path d="M159.952 409.303L141.363 309.299" stroke="#008080" stroke-opacity="0.35" stroke-width="8.76444"/>
<circle cx="162.95" cy="421.004" r="19.72" transform="rotate(-108.267 162.95 421.004)" fill="#008080"/>
<circle cx="267.938" cy="415.768" r="13.1467" transform="rotate(-108.267 267.938 415.768)" fill="#5AAD94"/>
<circle cx="140.421" cy="305.572" r="13.1467" transform="rotate(-108.267 140.421 305.572)" fill="#5AAD94"/>
<path d="M73.2086 393.679L-11.5213 350.303" stroke="#008080" stroke-opacity="0.35" stroke-width="8.76444"/>
<path d="M80.0068 409.337L46.5729 505.402" stroke="#008080" stroke-opacity="0.35" stroke-width="8.76444"/>
<circle cx="83.2045" cy="397.689" r="19.72" transform="rotate(101.452 83.2045 397.689)" fill="#008080"/>
<circle cx="-10.5694" cy="350.187" r="13.1467" transform="rotate(101.452 -10.5694 350.187)" fill="#5AAD94"/>
<rect x="-1" y="366" width="361" height="127" fill="#008080"/>
<path d="M32.0909 397.188C31.9716 396.773 31.804 396.406 31.5881 396.088C31.3722 395.764 31.108 395.491 30.7955 395.27C30.4886 395.043 30.1364 394.869 29.7386 394.75C29.3466 394.631 28.9119 394.571 28.4347 394.571C27.5426 394.571 26.7585 394.793 26.0824 395.236C25.4119 395.679 24.8892 396.324 24.5142 397.17C24.1392 398.011 23.9517 399.04 23.9517 400.256C23.9517 401.472 24.1364 402.506 24.5057 403.358C24.875 404.21 25.3977 404.861 26.0739 405.31C26.75 405.753 27.5483 405.974 28.4688 405.974C29.304 405.974 30.017 405.827 30.608 405.531C31.2045 405.23 31.6591 404.807 31.9716 404.261C32.2898 403.716 32.4489 403.071 32.4489 402.327L33.1989 402.438H28.6989V399.659H36.0028V401.858C36.0028 403.392 35.679 404.71 35.0312 405.812C34.3835 406.909 33.4915 407.756 32.3551 408.352C31.2188 408.943 29.9176 409.239 28.4517 409.239C26.8153 409.239 25.3778 408.878 24.1392 408.156C22.9006 407.429 21.9347 406.398 21.2415 405.062C20.554 403.722 20.2102 402.131 20.2102 400.29C20.2102 398.875 20.4148 397.614 20.8239 396.506C21.2386 395.392 21.8182 394.449 22.5625 393.676C23.3068 392.903 24.1733 392.315 25.1619 391.912C26.1506 391.509 27.2216 391.307 28.375 391.307C29.3636 391.307 30.2841 391.452 31.1364 391.741C31.9886 392.026 32.7443 392.429 33.4034 392.952C34.0682 393.474 34.6108 394.097 35.0312 394.818C35.4517 395.534 35.7216 396.324 35.8409 397.188H32.0909ZM47.3891 403.426V395.909H51.0198V409H47.534V406.622H47.3977C47.1022 407.389 46.6107 408.006 45.9232 408.472C45.2414 408.937 44.409 409.17 43.4261 409.17C42.5511 409.17 41.7812 408.972 41.1164 408.574C40.4516 408.176 39.9318 407.611 39.5568 406.878C39.1874 406.145 38.9999 405.267 38.9943 404.244V395.909H42.6249V403.597C42.6306 404.369 42.838 404.98 43.2471 405.429C43.6562 405.878 44.2045 406.102 44.892 406.102C45.3295 406.102 45.7386 406.003 46.1193 405.804C46.4999 405.599 46.8068 405.298 47.0397 404.901C47.2783 404.503 47.3948 404.011 47.3891 403.426ZM54.2115 409V395.909H57.8422V409H54.2115ZM56.0354 394.222C55.4956 394.222 55.0326 394.043 54.6462 393.685C54.2655 393.321 54.0752 392.886 54.0752 392.381C54.0752 391.881 54.2655 391.452 54.6462 391.094C55.0326 390.73 55.4956 390.548 56.0354 390.548C56.5752 390.548 57.0354 390.73 57.4161 391.094C57.8024 391.452 57.9956 391.881 57.9956 392.381C57.9956 392.886 57.8024 393.321 57.4161 393.685C57.0354 394.043 56.5752 394.222 56.0354 394.222ZM65.862 409.213C64.8677 409.213 63.9672 408.957 63.1603 408.446C62.3592 407.929 61.7228 407.17 61.2512 406.17C60.7853 405.165 60.5524 403.932 60.5524 402.472C60.5524 400.972 60.7939 399.724 61.2768 398.73C61.7598 397.73 62.4018 396.983 63.203 396.489C64.0098 395.989 64.8933 395.739 65.8535 395.739C66.5865 395.739 67.1973 395.864 67.6859 396.114C68.1802 396.358 68.578 396.665 68.8791 397.034C69.1859 397.398 69.4189 397.756 69.578 398.108H69.6887V391.545H73.3109V409H69.7314V406.903H69.578C69.4075 407.267 69.166 407.628 68.8535 407.986C68.5467 408.338 68.1461 408.631 67.6518 408.864C67.1632 409.097 66.5666 409.213 65.862 409.213ZM67.0126 406.324C67.5978 406.324 68.0922 406.165 68.4956 405.847C68.9047 405.523 69.2172 405.071 69.4331 404.491C69.6547 403.912 69.7655 403.233 69.7655 402.455C69.7655 401.676 69.6575 401 69.4416 400.426C69.2257 399.852 68.9132 399.409 68.5041 399.097C68.095 398.784 67.5978 398.628 67.0126 398.628C66.416 398.628 65.9132 398.79 65.5041 399.114C65.095 399.437 64.7853 399.886 64.5751 400.46C64.3649 401.034 64.2598 401.699 64.2598 402.455C64.2598 403.216 64.3649 403.889 64.5751 404.474C64.791 405.054 65.1007 405.509 65.5041 405.838C65.9132 406.162 66.416 406.324 67.0126 406.324ZM82.5495 409.256C81.2029 409.256 80.0438 408.983 79.0722 408.438C78.1063 407.886 77.362 407.108 76.8393 406.102C76.3165 405.091 76.0552 403.895 76.0552 402.514C76.0552 401.168 76.3165 399.986 76.8393 398.969C77.362 397.952 78.0978 397.159 79.0466 396.591C80.0012 396.023 81.1205 395.739 82.4046 395.739C83.2682 395.739 84.0722 395.878 84.8165 396.156C85.5665 396.429 86.2199 396.841 86.7768 397.392C87.3393 397.943 87.7768 398.636 88.0893 399.472C88.4018 400.301 88.558 401.273 88.558 402.386V403.384H77.504V401.134H85.1404C85.1404 400.611 85.0268 400.148 84.7995 399.744C84.5722 399.341 84.2569 399.026 83.8535 398.798C83.4557 398.565 82.9927 398.449 82.4643 398.449C81.9131 398.449 81.4245 398.577 80.9983 398.832C80.5779 399.082 80.2483 399.42 80.0097 399.847C79.7711 400.267 79.6489 400.736 79.6432 401.253V403.392C79.6432 404.04 79.7625 404.599 80.0012 405.071C80.2455 405.543 80.5893 405.906 81.0324 406.162C81.4756 406.418 82.0012 406.545 82.6091 406.545C83.0125 406.545 83.3819 406.489 83.7171 406.375C84.0523 406.261 84.3393 406.091 84.5779 405.864C84.8165 405.636 84.9983 405.358 85.1233 405.028L88.4813 405.25C88.3108 406.057 87.9614 406.761 87.433 407.364C86.9103 407.96 86.2341 408.426 85.4046 408.761C84.5807 409.091 83.629 409.256 82.5495 409.256ZM104.02 395.909V398.636H96.1367V395.909H104.02ZM97.9265 392.773H101.557V404.977C101.557 405.312 101.608 405.574 101.711 405.761C101.813 405.943 101.955 406.071 102.137 406.145C102.324 406.219 102.54 406.256 102.784 406.256C102.955 406.256 103.125 406.241 103.296 406.213C103.466 406.179 103.597 406.153 103.688 406.136L104.259 408.838C104.077 408.895 103.821 408.96 103.492 409.034C103.162 409.114 102.762 409.162 102.29 409.179C101.415 409.213 100.648 409.097 99.989 408.83C99.3356 408.562 98.8271 408.148 98.4634 407.585C98.0998 407.023 97.9208 406.312 97.9265 405.455V392.773ZM112.447 409.256C111.123 409.256 109.978 408.974 109.012 408.412C108.052 407.844 107.311 407.054 106.788 406.043C106.265 405.026 106.004 403.847 106.004 402.506C106.004 401.153 106.265 399.972 106.788 398.96C107.311 397.943 108.052 397.153 109.012 396.591C109.978 396.023 111.123 395.739 112.447 395.739C113.771 395.739 114.913 396.023 115.873 396.591C116.839 397.153 117.583 397.943 118.106 398.96C118.629 399.972 118.89 401.153 118.89 402.506C118.89 403.847 118.629 405.026 118.106 406.043C117.583 407.054 116.839 407.844 115.873 408.412C114.913 408.974 113.771 409.256 112.447 409.256ZM112.464 406.443C113.066 406.443 113.569 406.273 113.973 405.932C114.376 405.585 114.68 405.114 114.885 404.517C115.095 403.92 115.2 403.241 115.2 402.48C115.2 401.719 115.095 401.04 114.885 400.443C114.68 399.847 114.376 399.375 113.973 399.028C113.569 398.682 113.066 398.509 112.464 398.509C111.856 398.509 111.345 398.682 110.93 399.028C110.521 399.375 110.211 399.847 110.001 400.443C109.796 401.04 109.694 401.719 109.694 402.48C109.694 403.241 109.796 403.92 110.001 404.517C110.211 405.114 110.521 405.585 110.93 405.932C111.345 406.273 111.856 406.443 112.464 406.443ZM131.012 391.545V409H127.381V391.545H131.012ZM140.173 409.256C138.827 409.256 137.668 408.983 136.696 408.438C135.73 407.886 134.986 407.108 134.463 406.102C133.94 405.091 133.679 403.895 133.679 402.514C133.679 401.168 133.94 399.986 134.463 398.969C134.986 397.952 135.722 397.159 136.671 396.591C137.625 396.023 138.744 395.739 140.029 395.739C140.892 395.739 141.696 395.878 142.44 396.156C143.19 396.429 143.844 396.841 144.401 397.392C144.963 397.943 145.401 398.636 145.713 399.472C146.026 400.301 146.182 401.273 146.182 402.386V403.384H135.128V401.134H142.764C142.764 400.611 142.651 400.148 142.423 399.744C142.196 399.341 141.881 399.026 141.477 398.798C141.08 398.565 140.617 398.449 140.088 398.449C139.537 398.449 139.048 398.577 138.622 398.832C138.202 399.082 137.872 399.42 137.634 399.847C137.395 400.267 137.273 400.736 137.267 401.253V403.392C137.267 404.04 137.386 404.599 137.625 405.071C137.869 405.543 138.213 405.906 138.656 406.162C139.1 406.418 139.625 406.545 140.233 406.545C140.636 406.545 141.006 406.489 141.341 406.375C141.676 406.261 141.963 406.091 142.202 405.864C142.44 405.636 142.622 405.358 142.747 405.028L146.105 405.25C145.935 406.057 145.585 406.761 145.057 407.364C144.534 407.96 143.858 408.426 143.029 408.761C142.205 409.091 141.253 409.256 140.173 409.256ZM152.572 409.247C151.737 409.247 150.992 409.102 150.339 408.812C149.685 408.517 149.168 408.082 148.788 407.509C148.413 406.929 148.225 406.207 148.225 405.344C148.225 404.616 148.359 404.006 148.626 403.511C148.893 403.017 149.256 402.619 149.717 402.318C150.177 402.017 150.7 401.79 151.285 401.636C151.876 401.483 152.495 401.375 153.143 401.312C153.904 401.233 154.518 401.159 154.984 401.091C155.45 401.017 155.788 400.909 155.998 400.767C156.208 400.625 156.313 400.415 156.313 400.136V400.085C156.313 399.545 156.143 399.128 155.802 398.832C155.467 398.537 154.989 398.389 154.37 398.389C153.717 398.389 153.197 398.534 152.81 398.824C152.424 399.108 152.168 399.466 152.043 399.898L148.685 399.625C148.856 398.83 149.191 398.142 149.691 397.562C150.191 396.977 150.836 396.528 151.626 396.216C152.421 395.898 153.342 395.739 154.387 395.739C155.114 395.739 155.81 395.824 156.475 395.994C157.146 396.165 157.739 396.429 158.256 396.787C158.779 397.145 159.191 397.605 159.492 398.168C159.793 398.724 159.944 399.392 159.944 400.17V409H156.501V407.185H156.399C156.188 407.594 155.907 407.955 155.555 408.267C155.202 408.574 154.779 408.815 154.285 408.991C153.791 409.162 153.22 409.247 152.572 409.247ZM153.612 406.741C154.146 406.741 154.617 406.636 155.026 406.426C155.435 406.21 155.756 405.92 155.989 405.557C156.222 405.193 156.339 404.781 156.339 404.321V402.932C156.225 403.006 156.069 403.074 155.87 403.136C155.677 403.193 155.458 403.247 155.214 403.298C154.97 403.344 154.725 403.386 154.481 403.426C154.237 403.46 154.015 403.491 153.816 403.52C153.39 403.582 153.018 403.682 152.7 403.818C152.381 403.955 152.134 404.139 151.958 404.372C151.782 404.599 151.694 404.884 151.694 405.224C151.694 405.719 151.873 406.097 152.231 406.358C152.595 406.614 153.055 406.741 153.612 406.741ZM167.872 409.213C166.878 409.213 165.977 408.957 165.17 408.446C164.369 407.929 163.733 407.17 163.261 406.17C162.795 405.165 162.563 403.932 162.563 402.472C162.563 400.972 162.804 399.724 163.287 398.73C163.77 397.73 164.412 396.983 165.213 396.489C166.02 395.989 166.903 395.739 167.864 395.739C168.597 395.739 169.207 395.864 169.696 396.114C170.19 396.358 170.588 396.665 170.889 397.034C171.196 397.398 171.429 397.756 171.588 398.108H171.699V391.545H175.321V409H171.741V406.903H171.588C171.418 407.267 171.176 407.628 170.864 407.986C170.557 408.338 170.156 408.631 169.662 408.864C169.173 409.097 168.577 409.213 167.872 409.213ZM169.023 406.324C169.608 406.324 170.102 406.165 170.506 405.847C170.915 405.523 171.227 405.071 171.443 404.491C171.665 403.912 171.776 403.233 171.776 402.455C171.776 401.676 171.668 401 171.452 400.426C171.236 399.852 170.923 399.409 170.514 399.097C170.105 398.784 169.608 398.628 169.023 398.628C168.426 398.628 167.923 398.79 167.514 399.114C167.105 399.437 166.795 399.886 166.585 400.46C166.375 401.034 166.27 401.699 166.27 402.455C166.27 403.216 166.375 403.889 166.585 404.474C166.801 405.054 167.111 405.509 167.514 405.838C167.923 406.162 168.426 406.324 169.023 406.324ZM178.594 409V395.909H182.224V409H178.594ZM180.418 394.222C179.878 394.222 179.415 394.043 179.028 393.685C178.648 393.321 178.457 392.886 178.457 392.381C178.457 391.881 178.648 391.452 179.028 391.094C179.415 390.73 179.878 390.548 180.418 390.548C180.957 390.548 181.418 390.73 181.798 391.094C182.185 391.452 182.378 391.881 182.378 392.381C182.378 392.886 182.185 393.321 181.798 393.685C181.418 394.043 180.957 394.222 180.418 394.222ZM189.051 401.432V409H185.42V395.909H188.881V398.219H189.034C189.324 397.457 189.81 396.855 190.491 396.412C191.173 395.963 192 395.739 192.971 395.739C193.881 395.739 194.673 395.938 195.349 396.335C196.025 396.733 196.551 397.301 196.926 398.04C197.301 398.773 197.489 399.648 197.489 400.665V409H193.858V401.312C193.864 400.511 193.659 399.886 193.244 399.438C192.829 398.983 192.258 398.756 191.531 398.756C191.043 398.756 190.611 398.861 190.236 399.071C189.866 399.281 189.577 399.588 189.366 399.991C189.162 400.389 189.057 400.869 189.051 401.432ZM206.535 414.182C205.359 414.182 204.351 414.02 203.51 413.696C202.675 413.378 202.01 412.943 201.515 412.392C201.021 411.841 200.7 411.222 200.552 410.534L203.91 410.082C204.013 410.344 204.175 410.588 204.396 410.815C204.618 411.043 204.91 411.224 205.274 411.361C205.643 411.503 206.092 411.574 206.621 411.574C207.41 411.574 208.061 411.381 208.572 410.994C209.089 410.614 209.348 409.974 209.348 409.077V406.682H209.194C209.035 407.045 208.797 407.389 208.479 407.713C208.16 408.037 207.751 408.301 207.251 408.506C206.751 408.71 206.155 408.812 205.461 408.812C204.479 408.812 203.584 408.585 202.777 408.131C201.976 407.67 201.336 406.969 200.859 406.026C200.388 405.077 200.152 403.878 200.152 402.429C200.152 400.946 200.393 399.707 200.876 398.713C201.359 397.719 202.001 396.974 202.802 396.48C203.609 395.986 204.493 395.739 205.453 395.739C206.186 395.739 206.8 395.864 207.294 396.114C207.788 396.358 208.186 396.665 208.487 397.034C208.794 397.398 209.03 397.756 209.194 398.108H209.331V395.909H212.936V409.128C212.936 410.241 212.663 411.173 212.118 411.923C211.572 412.673 210.817 413.236 209.851 413.611C208.89 413.991 207.785 414.182 206.535 414.182ZM206.612 406.085C207.197 406.085 207.692 405.94 208.095 405.651C208.504 405.355 208.817 404.935 209.033 404.389C209.254 403.838 209.365 403.179 209.365 402.412C209.365 401.645 209.257 400.98 209.041 400.418C208.825 399.849 208.513 399.409 208.104 399.097C207.694 398.784 207.197 398.628 206.612 398.628C206.015 398.628 205.513 398.79 205.104 399.114C204.694 399.432 204.385 399.875 204.175 400.443C203.964 401.011 203.859 401.668 203.859 402.412C203.859 403.168 203.964 403.821 204.175 404.372C204.39 404.918 204.7 405.341 205.104 405.642C205.513 405.937 206.015 406.085 206.612 406.085ZM225.688 409.247C224.853 409.247 224.108 409.102 223.455 408.812C222.802 408.517 222.285 408.082 221.904 407.509C221.529 406.929 221.341 406.207 221.341 405.344C221.341 404.616 221.475 404.006 221.742 403.511C222.009 403.017 222.373 402.619 222.833 402.318C223.293 402.017 223.816 401.79 224.401 401.636C224.992 401.483 225.611 401.375 226.259 401.312C227.02 401.233 227.634 401.159 228.1 401.091C228.566 401.017 228.904 400.909 229.114 400.767C229.324 400.625 229.429 400.415 229.429 400.136V400.085C229.429 399.545 229.259 399.128 228.918 398.832C228.583 398.537 228.106 398.389 227.486 398.389C226.833 398.389 226.313 398.534 225.927 398.824C225.54 399.108 225.285 399.466 225.16 399.898L221.802 399.625C221.972 398.83 222.307 398.142 222.807 397.562C223.307 396.977 223.952 396.528 224.742 396.216C225.537 395.898 226.458 395.739 227.503 395.739C228.231 395.739 228.927 395.824 229.591 395.994C230.262 396.165 230.856 396.429 231.373 396.787C231.895 397.145 232.307 397.605 232.608 398.168C232.91 398.724 233.06 399.392 233.06 400.17V409H229.617V407.185H229.515C229.304 407.594 229.023 407.955 228.671 408.267C228.319 408.574 227.895 408.815 227.401 408.991C226.907 409.162 226.336 409.247 225.688 409.247ZM226.728 406.741C227.262 406.741 227.733 406.636 228.142 406.426C228.552 406.21 228.873 405.92 229.106 405.557C229.338 405.193 229.455 404.781 229.455 404.321V402.932C229.341 403.006 229.185 403.074 228.986 403.136C228.793 403.193 228.574 403.247 228.33 403.298C228.086 403.344 227.841 403.386 227.597 403.426C227.353 403.46 227.131 403.491 226.932 403.52C226.506 403.582 226.134 403.682 225.816 403.818C225.498 403.955 225.25 404.139 225.074 404.372C224.898 404.599 224.81 404.884 224.81 405.224C224.81 405.719 224.989 406.097 225.347 406.358C225.711 406.614 226.171 406.741 226.728 406.741ZM31.3409 428.642L28.017 428.847C27.9602 428.562 27.8381 428.307 27.6506 428.08C27.4631 427.847 27.2159 427.662 26.9091 427.526C26.608 427.384 26.2472 427.312 25.8267 427.312C25.2642 427.312 24.7898 427.432 24.4034 427.67C24.017 427.903 23.8239 428.216 23.8239 428.608C23.8239 428.92 23.9489 429.185 24.1989 429.401C24.4489 429.616 24.8778 429.79 25.4858 429.92L27.8551 430.398C29.1278 430.659 30.0767 431.08 30.7017 431.659C31.3267 432.239 31.6392 433 31.6392 433.943C31.6392 434.801 31.3864 435.554 30.8807 436.202C30.3807 436.849 29.6932 437.355 28.8182 437.719C27.9489 438.077 26.946 438.256 25.8097 438.256C24.0767 438.256 22.696 437.895 21.6676 437.173C20.6449 436.446 20.0455 435.457 19.8693 434.207L23.4403 434.02C23.5483 434.548 23.8097 434.952 24.2244 435.23C24.6392 435.503 25.1705 435.639 25.8182 435.639C26.4545 435.639 26.9659 435.517 27.3523 435.273C27.7443 435.023 27.9432 434.702 27.9489 434.31C27.9432 433.98 27.804 433.71 27.5312 433.5C27.2585 433.284 26.8381 433.119 26.2699 433.006L24.0028 432.554C22.7244 432.298 21.7727 431.855 21.1477 431.224C20.5284 430.594 20.2188 429.79 20.2188 428.812C20.2188 427.972 20.446 427.247 20.9006 426.639C21.3608 426.031 22.0057 425.562 22.8352 425.233C23.6705 424.903 24.6477 424.739 25.767 424.739C27.4205 424.739 28.7216 425.088 29.6705 425.787C30.625 426.486 31.1818 427.437 31.3409 428.642ZM42.6079 432.426V424.909H46.2386V438H42.7528V435.622H42.6164C42.321 436.389 41.8295 437.006 41.142 437.472C40.4602 437.937 39.6278 438.17 38.6448 438.17C37.7698 438.17 36.9999 437.972 36.3352 437.574C35.6704 437.176 35.1505 436.611 34.7755 435.878C34.4062 435.145 34.2187 434.267 34.213 433.244V424.909H37.8437V432.597C37.8494 433.369 38.0568 433.98 38.4659 434.429C38.8749 434.878 39.4232 435.102 40.1107 435.102C40.5482 435.102 40.9573 435.003 41.338 434.804C41.7187 434.599 42.0255 434.298 42.2585 433.901C42.4971 433.503 42.6136 433.011 42.6079 432.426ZM60.3223 428.642L56.9985 428.847C56.9416 428.562 56.8195 428.307 56.632 428.08C56.4445 427.847 56.1973 427.662 55.8905 427.526C55.5894 427.384 55.2286 427.312 54.8081 427.312C54.2456 427.312 53.7712 427.432 53.3848 427.67C52.9985 427.903 52.8053 428.216 52.8053 428.608C52.8053 428.92 52.9303 429.185 53.1803 429.401C53.4303 429.616 53.8593 429.79 54.4672 429.92L56.8365 430.398C58.1093 430.659 59.0581 431.08 59.6831 431.659C60.3081 432.239 60.6206 433 60.6206 433.943C60.6206 434.801 60.3678 435.554 59.8621 436.202C59.3621 436.849 58.6746 437.355 57.7996 437.719C56.9303 438.077 55.9274 438.256 54.7911 438.256C53.0581 438.256 51.6774 437.895 50.649 437.173C49.6263 436.446 49.0269 435.457 48.8507 434.207L52.4218 434.02C52.5297 434.548 52.7911 434.952 53.2058 435.23C53.6206 435.503 54.1519 435.639 54.7996 435.639C55.436 435.639 55.9473 435.517 56.3337 435.273C56.7257 435.023 56.9246 434.702 56.9303 434.31C56.9246 433.98 56.7854 433.71 56.5127 433.5C56.2399 433.284 55.8195 433.119 55.2513 433.006L52.9843 432.554C51.7058 432.298 50.7541 431.855 50.1291 431.224C49.5098 430.594 49.2002 429.79 49.2002 428.812C49.2002 427.972 49.4274 427.247 49.882 426.639C50.3422 426.031 50.9871 425.562 51.8166 425.233C52.6519 424.903 53.6291 424.739 54.7485 424.739C56.4019 424.739 57.703 425.088 58.6519 425.787C59.6064 426.486 60.1632 427.437 60.3223 428.642ZM70.1575 424.909V427.636H62.274V424.909H70.1575ZM64.0637 421.773H67.6944V433.977C67.6944 434.312 67.7456 434.574 67.8478 434.761C67.9501 434.943 68.0922 435.071 68.274 435.145C68.4615 435.219 68.6774 435.256 68.9217 435.256C69.0922 435.256 69.2626 435.241 69.4331 435.213C69.6035 435.179 69.7342 435.153 69.8251 435.136L70.3961 437.838C70.2143 437.895 69.9586 437.96 69.6291 438.034C69.2995 438.114 68.899 438.162 68.4274 438.179C67.5524 438.213 66.7853 438.097 66.1262 437.83C65.4728 437.562 64.9643 437.148 64.6007 436.585C64.237 436.023 64.0581 435.312 64.0637 434.455V421.773ZM76.5431 438.247C75.7079 438.247 74.9635 438.102 74.3101 437.812C73.6567 437.517 73.1397 437.082 72.759 436.509C72.384 435.929 72.1965 435.207 72.1965 434.344C72.1965 433.616 72.33 433.006 72.5971 432.511C72.8641 432.017 73.2277 431.619 73.688 431.318C74.1482 431.017 74.6709 430.79 75.2562 430.636C75.8471 430.483 76.4664 430.375 77.1141 430.312C77.8755 430.233 78.4891 430.159 78.955 430.091C79.4209 430.017 79.759 429.909 79.9692 429.767C80.1795 429.625 80.2846 429.415 80.2846 429.136V429.085C80.2846 428.545 80.1141 428.128 79.7732 427.832C79.438 427.537 78.9607 427.389 78.3414 427.389C77.688 427.389 77.1681 427.534 76.7817 427.824C76.3954 428.108 76.1397 428.466 76.0147 428.898L72.6567 428.625C72.8272 427.83 73.1624 427.142 73.6624 426.562C74.1624 425.977 74.8073 425.528 75.5971 425.216C76.3925 424.898 77.313 424.739 78.3584 424.739C79.0857 424.739 79.7817 424.824 80.4465 424.994C81.117 425.165 81.7107 425.429 82.2277 425.787C82.7505 426.145 83.1624 426.605 83.4635 427.168C83.7647 427.724 83.9152 428.392 83.9152 429.17V438H80.4721V436.185H80.3698C80.1596 436.594 79.8783 436.955 79.526 437.267C79.1738 437.574 78.7505 437.815 78.2562 437.991C77.7618 438.162 77.1908 438.247 76.5431 438.247ZM77.5829 435.741C78.117 435.741 78.5885 435.636 78.9976 435.426C79.4067 435.21 79.7277 434.92 79.9607 434.557C80.1937 434.193 80.3101 433.781 80.3101 433.321V431.932C80.1965 432.006 80.0402 432.074 79.8414 432.136C79.6482 432.193 79.4295 432.247 79.1851 432.298C78.9408 432.344 78.6965 432.386 78.4522 432.426C78.2079 432.46 77.9863 432.491 77.7874 432.52C77.3613 432.582 76.9891 432.682 76.6709 432.818C76.3527 432.955 76.1056 433.139 75.9295 433.372C75.7533 433.599 75.6652 433.884 75.6652 434.224C75.6652 434.719 75.8442 435.097 76.2022 435.358C76.5658 435.614 77.026 435.741 77.5829 435.741ZM87.0196 438V424.909H90.6503V438H87.0196ZM88.8435 423.222C88.3037 423.222 87.8406 423.043 87.4543 422.685C87.0736 422.321 86.8832 421.886 86.8832 421.381C86.8832 420.881 87.0736 420.452 87.4543 420.094C87.8406 419.73 88.3037 419.548 88.8435 419.548C89.3832 419.548 89.8435 419.73 90.2241 420.094C90.6105 420.452 90.8037 420.881 90.8037 421.381C90.8037 421.886 90.6105 422.321 90.2241 422.685C89.8435 423.043 89.3832 423.222 88.8435 423.222ZM97.4769 430.432V438H93.8462V424.909H97.3065V427.219H97.4599C97.7496 426.457 98.2354 425.855 98.9173 425.412C99.5991 424.963 100.426 424.739 101.397 424.739C102.306 424.739 103.099 424.938 103.775 425.335C104.451 425.733 104.977 426.301 105.352 427.04C105.727 427.773 105.914 428.648 105.914 429.665V438H102.284V430.312C102.289 429.511 102.085 428.886 101.67 428.438C101.255 427.983 100.684 427.756 99.957 427.756C99.4684 427.756 99.0366 427.861 98.6616 428.071C98.2923 428.281 98.0025 428.588 97.7923 428.991C97.5877 429.389 97.4826 429.869 97.4769 430.432ZM112.796 438.247C111.961 438.247 111.217 438.102 110.564 437.812C109.91 437.517 109.393 437.082 109.012 436.509C108.637 435.929 108.45 435.207 108.45 434.344C108.45 433.616 108.583 433.006 108.85 432.511C109.117 432.017 109.481 431.619 109.941 431.318C110.402 431.017 110.924 430.79 111.51 430.636C112.1 430.483 112.72 430.375 113.367 430.312C114.129 430.233 114.742 430.159 115.208 430.091C115.674 430.017 116.012 429.909 116.223 429.767C116.433 429.625 116.538 429.415 116.538 429.136V429.085C116.538 428.545 116.367 428.128 116.027 427.832C115.691 427.537 115.214 427.389 114.595 427.389C113.941 427.389 113.421 427.534 113.035 427.824C112.649 428.108 112.393 428.466 112.268 428.898L108.91 428.625C109.081 427.83 109.416 427.142 109.916 426.562C110.416 425.977 111.061 425.528 111.85 425.216C112.646 424.898 113.566 424.739 114.612 424.739C115.339 424.739 116.035 424.824 116.7 424.994C117.37 425.165 117.964 425.429 118.481 425.787C119.004 426.145 119.416 426.605 119.717 427.168C120.018 427.724 120.169 428.392 120.169 429.17V438H116.725V436.185H116.623C116.413 436.594 116.132 436.955 115.779 437.267C115.427 437.574 115.004 437.815 114.51 437.991C114.015 438.162 113.444 438.247 112.796 438.247ZM113.836 435.741C114.37 435.741 114.842 435.636 115.251 435.426C115.66 435.21 115.981 434.92 116.214 434.557C116.447 434.193 116.564 433.781 116.564 433.321V431.932C116.45 432.006 116.294 432.074 116.095 432.136C115.902 432.193 115.683 432.247 115.439 432.298C115.194 432.344 114.95 432.386 114.706 432.426C114.461 432.46 114.24 432.491 114.041 432.52C113.615 432.582 113.242 432.682 112.924 432.818C112.606 432.955 112.359 433.139 112.183 433.372C112.007 433.599 111.919 433.884 111.919 434.224C111.919 434.719 112.098 435.097 112.456 435.358C112.819 435.614 113.279 435.741 113.836 435.741ZM123.341 438V420.545H126.972V427.108H127.083C127.242 426.756 127.472 426.398 127.773 426.034C128.08 425.665 128.478 425.358 128.966 425.114C129.46 424.864 130.074 424.739 130.807 424.739C131.762 424.739 132.642 424.989 133.449 425.489C134.256 425.983 134.901 426.73 135.384 427.73C135.867 428.724 136.108 429.972 136.108 431.472C136.108 432.932 135.872 434.165 135.401 435.17C134.935 436.17 134.299 436.929 133.492 437.446C132.691 437.957 131.793 438.213 130.799 438.213C130.094 438.213 129.495 438.097 129 437.864C128.512 437.631 128.111 437.338 127.799 436.986C127.486 436.628 127.247 436.267 127.083 435.903H126.921V438H123.341ZM126.895 431.455C126.895 432.233 127.003 432.912 127.219 433.491C127.435 434.071 127.747 434.523 128.156 434.847C128.566 435.165 129.063 435.324 129.648 435.324C130.239 435.324 130.739 435.162 131.148 434.838C131.557 434.509 131.867 434.054 132.077 433.474C132.293 432.889 132.401 432.216 132.401 431.455C132.401 430.699 132.296 430.034 132.085 429.46C131.875 428.886 131.566 428.437 131.156 428.114C130.747 427.79 130.245 427.628 129.648 427.628C129.057 427.628 128.557 427.784 128.148 428.097C127.745 428.409 127.435 428.852 127.219 429.426C127.003 430 126.895 430.676 126.895 431.455ZM142.449 420.545V438H138.818V420.545H142.449ZM151.611 438.256C150.264 438.256 149.105 437.983 148.134 437.438C147.168 436.886 146.423 436.108 145.901 435.102C145.378 434.091 145.117 432.895 145.117 431.514C145.117 430.168 145.378 428.986 145.901 427.969C146.423 426.952 147.159 426.159 148.108 425.591C149.063 425.023 150.182 424.739 151.466 424.739C152.33 424.739 153.134 424.878 153.878 425.156C154.628 425.429 155.281 425.841 155.838 426.392C156.401 426.943 156.838 427.636 157.151 428.472C157.463 429.301 157.619 430.273 157.619 431.386V432.384H146.565V430.134H154.202C154.202 429.611 154.088 429.148 153.861 428.744C153.634 428.341 153.318 428.026 152.915 427.798C152.517 427.565 152.054 427.449 151.526 427.449C150.975 427.449 150.486 427.577 150.06 427.832C149.639 428.082 149.31 428.42 149.071 428.847C148.833 429.267 148.71 429.736 148.705 430.253V432.392C148.705 433.04 148.824 433.599 149.063 434.071C149.307 434.543 149.651 434.906 150.094 435.162C150.537 435.418 151.063 435.545 151.671 435.545C152.074 435.545 152.443 435.489 152.779 435.375C153.114 435.261 153.401 435.091 153.639 434.864C153.878 434.636 154.06 434.358 154.185 434.028L157.543 434.25C157.372 435.057 157.023 435.761 156.494 436.364C155.972 436.96 155.296 437.426 154.466 437.761C153.642 438.091 152.69 438.256 151.611 438.256ZM169.749 420.545V438H166.119V420.545H169.749ZM172.945 438V424.909H176.576V438H172.945ZM174.769 423.222C174.229 423.222 173.766 423.043 173.38 422.685C172.999 422.321 172.809 421.886 172.809 421.381C172.809 420.881 172.999 420.452 173.38 420.094C173.766 419.73 174.229 419.548 174.769 419.548C175.309 419.548 175.769 419.73 176.15 420.094C176.536 420.452 176.729 420.881 176.729 421.381C176.729 421.886 176.536 422.321 176.15 422.685C175.769 423.043 175.309 423.222 174.769 423.222ZM186.812 424.909V427.636H178.732V424.909H186.812ZM180.582 438V423.963C180.582 423.014 180.766 422.227 181.136 421.602C181.511 420.977 182.022 420.509 182.67 420.196C183.317 419.884 184.053 419.727 184.877 419.727C185.434 419.727 185.942 419.77 186.403 419.855C186.868 419.94 187.215 420.017 187.442 420.085L186.795 422.812C186.653 422.767 186.476 422.724 186.266 422.685C186.062 422.645 185.851 422.625 185.636 422.625C185.101 422.625 184.729 422.75 184.519 423C184.309 423.244 184.204 423.588 184.204 424.031V438H180.582ZM194.814 438.256C193.468 438.256 192.309 437.983 191.337 437.438C190.371 436.886 189.627 436.108 189.104 435.102C188.582 434.091 188.32 432.895 188.32 431.514C188.32 430.168 188.582 428.986 189.104 427.969C189.627 426.952 190.363 426.159 191.312 425.591C192.266 425.023 193.385 424.739 194.67 424.739C195.533 424.739 196.337 424.878 197.082 425.156C197.832 425.429 198.485 425.841 199.042 426.392C199.604 426.943 200.042 427.636 200.354 428.472C200.667 429.301 200.823 430.273 200.823 431.386V432.384H189.769V430.134H197.405C197.405 429.611 197.292 429.148 197.064 428.744C196.837 428.341 196.522 428.026 196.118 427.798C195.721 427.565 195.258 427.449 194.729 427.449C194.178 427.449 193.689 427.577 193.263 427.832C192.843 428.082 192.513 428.42 192.275 428.847C192.036 429.267 191.914 429.736 191.908 430.253V432.392C191.908 433.04 192.028 433.599 192.266 434.071C192.51 434.543 192.854 434.906 193.297 435.162C193.741 435.418 194.266 435.545 194.874 435.545C195.278 435.545 195.647 435.489 195.982 435.375C196.317 435.261 196.604 435.091 196.843 434.864C197.082 434.636 197.263 434.358 197.388 434.028L200.746 434.25C200.576 435.057 200.226 435.761 199.698 436.364C199.175 436.96 198.499 437.426 197.67 437.761C196.846 438.091 195.894 438.256 194.814 438.256ZM214.372 428.642L211.048 428.847C210.991 428.562 210.869 428.307 210.682 428.08C210.494 427.847 210.247 427.662 209.94 427.526C209.639 427.384 209.278 427.312 208.858 427.312C208.295 427.312 207.821 427.432 207.434 427.67C207.048 427.903 206.855 428.216 206.855 428.608C206.855 428.92 206.98 429.185 207.23 429.401C207.48 429.616 207.909 429.79 208.517 429.92L210.886 430.398C212.159 430.659 213.108 431.08 213.733 431.659C214.358 432.239 214.67 433 214.67 433.943C214.67 434.801 214.417 435.554 213.912 436.202C213.412 436.849 212.724 437.355 211.849 437.719C210.98 438.077 209.977 438.256 208.841 438.256C207.108 438.256 205.727 437.895 204.699 437.173C203.676 436.446 203.076 435.457 202.9 434.207L206.471 434.02C206.579 434.548 206.841 434.952 207.255 435.23C207.67 435.503 208.201 435.639 208.849 435.639C209.486 435.639 209.997 435.517 210.383 435.273C210.775 435.023 210.974 434.702 210.98 434.31C210.974 433.98 210.835 433.71 210.562 433.5C210.29 433.284 209.869 433.119 209.301 433.006L207.034 432.554C205.755 432.298 204.804 431.855 204.179 431.224C203.559 430.594 203.25 429.79 203.25 428.812C203.25 427.972 203.477 427.247 203.932 426.639C204.392 426.031 205.037 425.562 205.866 425.233C206.701 424.903 207.679 424.739 208.798 424.739C210.451 424.739 211.753 425.088 212.701 425.787C213.656 426.486 214.213 427.437 214.372 428.642ZM224.207 424.909V427.636H216.324V424.909H224.207ZM218.113 421.773H221.744V433.977C221.744 434.312 221.795 434.574 221.897 434.761C222 434.943 222.142 435.071 222.324 435.145C222.511 435.219 222.727 435.256 222.971 435.256C223.142 435.256 223.312 435.241 223.483 435.213C223.653 435.179 223.784 435.153 223.875 435.136L224.446 437.838C224.264 437.895 224.008 437.96 223.679 438.034C223.349 438.114 222.949 438.162 222.477 438.179C221.602 438.213 220.835 438.097 220.176 437.83C219.522 437.562 219.014 437.148 218.65 436.585C218.287 436.023 218.108 435.312 218.113 434.455V421.773ZM229.101 442.909C228.641 442.909 228.209 442.872 227.806 442.798C227.408 442.73 227.078 442.642 226.817 442.534L227.635 439.824C228.061 439.955 228.445 440.026 228.786 440.037C229.132 440.048 229.431 439.969 229.681 439.798C229.936 439.628 230.144 439.338 230.303 438.929L230.516 438.375L225.82 424.909H229.638L232.348 434.523H232.485L235.221 424.909H239.064L233.976 439.415C233.732 440.119 233.4 440.733 232.979 441.256C232.564 441.784 232.039 442.19 231.402 442.474C230.766 442.764 229.999 442.909 229.101 442.909ZM244.841 420.545V438H241.21V420.545H244.841ZM254.002 438.256C252.656 438.256 251.497 437.983 250.525 437.438C249.559 436.886 248.815 436.108 248.292 435.102C247.769 434.091 247.508 432.895 247.508 431.514C247.508 430.168 247.769 428.986 248.292 427.969C248.815 426.952 249.551 426.159 250.5 425.591C251.454 425.023 252.573 424.739 253.857 424.739C254.721 424.739 255.525 424.878 256.269 425.156C257.019 425.429 257.673 425.841 258.23 426.392C258.792 426.943 259.23 427.636 259.542 428.472C259.855 429.301 260.011 430.273 260.011 431.386V432.384H248.957V430.134H256.593C256.593 429.611 256.48 429.148 256.252 428.744C256.025 428.341 255.71 428.026 255.306 427.798C254.909 427.565 254.446 427.449 253.917 427.449C253.366 427.449 252.877 427.577 252.451 427.832C252.031 428.082 251.701 428.42 251.463 428.847C251.224 429.267 251.102 429.736 251.096 430.253V432.392C251.096 433.04 251.215 433.599 251.454 434.071C251.698 434.543 252.042 434.906 252.485 435.162C252.929 435.418 253.454 435.545 254.062 435.545C254.465 435.545 254.835 435.489 255.17 435.375C255.505 435.261 255.792 435.091 256.031 434.864C256.269 434.636 256.451 434.358 256.576 434.028L259.934 434.25C259.764 435.057 259.414 435.761 258.886 436.364C258.363 436.96 257.687 437.426 256.857 437.761C256.034 438.091 255.082 438.256 254.002 438.256ZM268.51 438V424.909H272.141V438H268.51ZM270.334 423.222C269.794 423.222 269.331 423.043 268.945 422.685C268.564 422.321 268.374 421.886 268.374 421.381C268.374 420.881 268.564 420.452 268.945 420.094C269.331 419.73 269.794 419.548 270.334 419.548C270.874 419.548 271.334 419.73 271.715 420.094C272.101 420.452 272.294 420.881 272.294 421.381C272.294 421.886 272.101 422.321 271.715 422.685C271.334 423.043 270.874 423.222 270.334 423.222ZM278.967 430.432V438H275.337V424.909H278.797V427.219H278.95C279.24 426.457 279.726 425.855 280.408 425.412C281.09 424.963 281.916 424.739 282.888 424.739C283.797 424.739 284.59 424.938 285.266 425.335C285.942 425.733 286.467 426.301 286.842 427.04C287.217 427.773 287.405 428.648 287.405 429.665V438H283.774V430.312C283.78 429.511 283.575 428.886 283.161 428.438C282.746 427.983 282.175 427.756 281.448 427.756C280.959 427.756 280.527 427.861 280.152 428.071C279.783 428.281 279.493 428.588 279.283 428.991C279.078 429.389 278.973 429.869 278.967 430.432ZM24.2074 449.545V467H20.517V449.545H24.2074ZM31.0937 459.432V467H27.463V453.909H30.9232V456.219H31.0766C31.3664 455.457 31.8522 454.855 32.534 454.412C33.2159 453.963 34.0426 453.739 35.0141 453.739C35.9232 453.739 36.7159 453.938 37.392 454.335C38.0681 454.733 38.5937 455.301 38.9687 456.04C39.3437 456.773 39.5312 457.648 39.5312 458.665V467H35.9005V459.312C35.9062 458.511 35.7016 457.886 35.2869 457.438C34.8721 456.983 34.3011 456.756 33.5738 456.756C33.0852 456.756 32.6534 456.861 32.2784 457.071C31.909 457.281 31.6193 457.588 31.409 457.991C31.2045 458.389 31.0994 458.869 31.0937 459.432ZM47.5041 467.213C46.5098 467.213 45.6093 466.957 44.8024 466.446C44.0013 465.929 43.3649 465.17 42.8933 464.17C42.4274 463.165 42.1945 461.932 42.1945 460.472C42.1945 458.972 42.436 457.724 42.9189 456.73C43.4019 455.73 44.0439 454.983 44.8451 454.489C45.6519 453.989 46.5354 453.739 47.4956 453.739C48.2286 453.739 48.8394 453.864 49.328 454.114C49.8223 454.358 50.2201 454.665 50.5212 455.034C50.828 455.398 51.061 455.756 51.2201 456.108H51.3308V449.545H54.953V467H51.3735V464.903H51.2201C51.0496 465.267 50.8081 465.628 50.4956 465.986C50.1888 466.338 49.7882 466.631 49.2939 466.864C48.8053 467.097 48.2087 467.213 47.5041 467.213ZM48.6547 464.324C49.2399 464.324 49.7343 464.165 50.1377 463.847C50.5468 463.523 50.8593 463.071 51.0752 462.491C51.2968 461.912 51.4076 461.233 51.4076 460.455C51.4076 459.676 51.2996 459 51.0837 458.426C50.8678 457.852 50.5553 457.409 50.1462 457.097C49.7371 456.784 49.2399 456.628 48.6547 456.628C48.0581 456.628 47.5553 456.79 47.1462 457.114C46.7371 457.437 46.4274 457.886 46.2172 458.46C46.007 459.034 45.9019 459.699 45.9019 460.455C45.9019 461.216 46.007 461.889 46.2172 462.474C46.4331 463.054 46.7428 463.509 47.1462 463.838C47.5553 464.162 48.0581 464.324 48.6547 464.324ZM58.2257 467V453.909H61.8564V467H58.2257ZM60.0495 452.222C59.5098 452.222 59.0467 452.043 58.6603 451.685C58.2797 451.321 58.0893 450.886 58.0893 450.381C58.0893 449.881 58.2797 449.452 58.6603 449.094C59.0467 448.73 59.5098 448.548 60.0495 448.548C60.5893 448.548 61.0495 448.73 61.4302 449.094C61.8166 449.452 62.0098 449.881 62.0098 450.381C62.0098 450.886 61.8166 451.321 61.4302 451.685C61.0495 452.043 60.5893 452.222 60.0495 452.222ZM68.7853 467.247C67.95 467.247 67.2057 467.102 66.5523 466.812C65.8989 466.517 65.3819 466.082 65.0012 465.509C64.6262 464.929 64.4387 464.207 64.4387 463.344C64.4387 462.616 64.5722 462.006 64.8393 461.511C65.1063 461.017 65.4699 460.619 65.9302 460.318C66.3904 460.017 66.9131 459.79 67.4983 459.636C68.0893 459.483 68.7086 459.375 69.3563 459.312C70.1177 459.233 70.7313 459.159 71.1972 459.091C71.6631 459.017 72.0012 458.909 72.2114 458.767C72.4216 458.625 72.5268 458.415 72.5268 458.136V458.085C72.5268 457.545 72.3563 457.128 72.0154 456.832C71.6802 456.537 71.2029 456.389 70.5836 456.389C69.9302 456.389 69.4103 456.534 69.0239 456.824C68.6375 457.108 68.3819 457.466 68.2569 457.898L64.8989 457.625C65.0694 456.83 65.4046 456.142 65.9046 455.562C66.4046 454.977 67.0495 454.528 67.8393 454.216C68.6347 453.898 69.5552 453.739 70.6006 453.739C71.3279 453.739 72.0239 453.824 72.6887 453.994C73.3591 454.165 73.9529 454.429 74.4699 454.787C74.9927 455.145 75.4046 455.605 75.7057 456.168C76.0069 456.724 76.1574 457.392 76.1574 458.17V467H72.7143V465.185H72.612C72.4018 465.594 72.1205 465.955 71.7682 466.267C71.416 466.574 70.9927 466.815 70.4983 466.991C70.004 467.162 69.433 467.247 68.7853 467.247ZM69.825 464.741C70.3591 464.741 70.8307 464.636 71.2398 464.426C71.6489 464.21 71.9699 463.92 72.2029 463.557C72.4358 463.193 72.5523 462.781 72.5523 462.321V460.932C72.4387 461.006 72.2824 461.074 72.0836 461.136C71.8904 461.193 71.6716 461.247 71.4273 461.298C71.183 461.344 70.9387 461.386 70.6944 461.426C70.45 461.46 70.2285 461.491 70.0296 461.52C69.6035 461.582 69.2313 461.682 68.9131 461.818C68.5949 461.955 68.3478 462.139 68.1716 462.372C67.9955 462.599 67.9074 462.884 67.9074 463.224C67.9074 463.719 68.0864 464.097 68.4444 464.358C68.808 464.614 69.2682 464.741 69.825 464.741Z" fill="#FFE978"/>
</g>
<defs>
<clipPath id="clip0_573_7626">
<rect width="360" height="493" rx="12" fill="white"/>
</clipPath>
</defs>
</svg>
