<svg width="620" height="350" viewBox="0 0 620 350" fill="none" xmlns="http://www.w3.org/2000/svg">
<g clip-path="url(#clip0_544_4581)">
<rect width="620" height="350" rx="12" fill="#FFE978"/>
<path d="M46.4537 39.9629L28.6622 103.441" stroke="#008080" stroke-opacity="0.35" stroke-width="6.07"/>
<path d="M56.1475 33.1953L125.952 42.6797" stroke="#008080" stroke-opacity="0.35" stroke-width="6.07"/>
<circle cx="47.8011" cy="32.6263" r="13.6575" fill="#008080"/>
<circle cx="28.4531" cy="102.811" r="9.105" fill="#5AAD94"/>
<circle cx="128.608" cy="42.8694" r="9.105" fill="#5AAD94"/>
<path d="M75.2845 157.323L76.0405 91.4037" stroke="#008080" stroke-opacity="0.35" stroke-width="6.07"/>
<path d="M67.6729 166.369L-2.20834 175.275" stroke="#008080" stroke-opacity="0.35" stroke-width="6.07"/>
<circle cx="75.8819" cy="164.759" r="13.6575" transform="rotate(165 75.8819 164.759)" fill="#008080"/>
<circle cx="76.4058" cy="91.9582" r="9.105" transform="rotate(165 76.4058 91.9582)" fill="#5AAD94"/>
<circle cx="-4.82269" cy="175.779" r="9.105" transform="rotate(165 -4.82269 175.779)" fill="#5AAD94"/>
<path d="M188.344 18.628L131.634 -14.9866" stroke="#008080" stroke-opacity="0.35" stroke-width="6.07"/>
<path d="M192.372 29.7429L165.144 94.7146" stroke="#008080" stroke-opacity="0.35" stroke-width="6.07"/>
<circle cx="195.082" cy="21.8283" r="13.6575" transform="rotate(105 195.082 21.8283)" fill="#008080"/>
<circle cx="164.273" cy="97.2307" r="9.105" transform="rotate(105 164.273 97.2307)" fill="#5AAD94"/>
<path d="M271.347 49.2402L224.006 95.1183" stroke="#008080" stroke-opacity="0.35" stroke-width="6.07"/>
<path d="M283.13 48.2759L338.658 91.627" stroke="#008080" stroke-opacity="0.35" stroke-width="6.07"/>
<circle cx="276.206" cy="43.5806" r="13.6575" transform="rotate(30.242 276.206 43.5806)" fill="#008080"/>
<circle cx="224.143" cy="94.4686" r="9.105" transform="rotate(30.242 224.143 94.4686)" fill="#5AAD94"/>
<circle cx="340.857" cy="93.1284" r="9.105" transform="rotate(30.242 340.857 93.1284)" fill="#5AAD94"/>
<path d="M402.912 102.422L383.258 39.4957" stroke="#008080" stroke-opacity="0.35" stroke-width="6.07"/>
<path d="M398.469 113.377L334.761 143.445" stroke="#008080" stroke-opacity="0.35" stroke-width="6.07"/>
<circle cx="405.778" cy="109.308" r="13.6575" transform="rotate(146.997 405.778 109.308)" fill="#008080"/>
<circle cx="383.776" cy="39.9102" r="9.105" transform="rotate(146.997 383.776 39.9102)" fill="#5AAD94"/>
<circle cx="332.431" cy="144.732" r="9.105" transform="rotate(146.997 332.431 144.732)" fill="#5AAD94"/>
<path d="M522.812 43.8315L588.724 45.0775" stroke="#008080" stroke-opacity="0.35" stroke-width="6.07"/>
<path d="M513.823 36.1527L505.437 -33.7927" stroke="#008080" stroke-opacity="0.35" stroke-width="6.07"/>
<circle cx="515.373" cy="44.3736" r="13.6575" transform="rotate(-104.574 515.373 44.3736)" fill="#008080"/>
<circle cx="588.167" cy="45.4386" r="9.105" transform="rotate(-104.574 588.167 45.4386)" fill="#5AAD94"/>
<path d="M614.675 117.343L547.296 96.7822" stroke="#008080" stroke-opacity="0.35" stroke-width="6.07"/>
<circle cx="622.822" cy="119.244" r="13.6575" transform="rotate(-170.768 622.822 119.244)" fill="#008080"/>
<circle cx="544.705" cy="96.1689" r="9.105" transform="rotate(-170.768 544.705 96.1689)" fill="#5AAD94"/>
<path d="M479.772 162.947L545.159 171.345" stroke="#008080" stroke-opacity="0.35" stroke-width="6.07"/>
<path d="M471.67 154.337L470.931 83.8944" stroke="#008080" stroke-opacity="0.35" stroke-width="6.07"/>
<circle cx="472.318" cy="162.677" r="13.6575" transform="rotate(-98.3384 472.318 162.677)" fill="#008080"/>
<circle cx="544.566" cy="171.643" r="9.105" transform="rotate(-98.3384 544.566 171.643)" fill="#5AAD94"/>
<circle cx="470.734" cy="81.2393" r="9.105" transform="rotate(-98.3384 470.734 81.2393)" fill="#5AAD94"/>
<path d="M187.675 156.478L125.469 134.653" stroke="#008080" stroke-opacity="0.35" stroke-width="6.07"/>
<path d="M193.807 166.586L179.866 235.639" stroke="#008080" stroke-opacity="0.35" stroke-width="6.07"/>
<circle cx="194.91" cy="158.293" r="13.6575" transform="rotate(93.6764 194.91 158.293)" fill="#008080"/>
<circle cx="126.111" cy="134.484" r="9.105" transform="rotate(93.6764 126.111 134.484)" fill="#5AAD94"/>
<circle cx="179.507" cy="238.277" r="9.105" transform="rotate(93.6764 179.507 238.277)" fill="#5AAD94"/>
<path d="M120.243 290.555L186.099 287.553" stroke="#008080" stroke-opacity="0.35" stroke-width="6.07"/>
<path d="M110.778 283.471L97.9042 214.211" stroke="#008080" stroke-opacity="0.35" stroke-width="6.07"/>
<circle cx="112.854" cy="291.575" r="13.6575" transform="rotate(-108.267 112.854 291.575)" fill="#008080"/>
<circle cx="185.566" cy="287.949" r="9.105" transform="rotate(-108.267 185.566 287.949)" fill="#5AAD94"/>
<circle cx="97.2521" cy="211.63" r="9.105" transform="rotate(-108.267 97.2521 211.63)" fill="#5AAD94"/>
<path d="M50.702 272.65L-7.97949 242.61" stroke="#008080" stroke-opacity="0.35" stroke-width="6.07"/>
<path d="M55.4106 283.495L32.2553 350.027" stroke="#008080" stroke-opacity="0.35" stroke-width="6.07"/>
<circle cx="57.6254" cy="275.428" r="13.6575" transform="rotate(101.452 57.6254 275.428)" fill="#008080"/>
<circle cx="-7.31991" cy="242.53" r="9.105" transform="rotate(101.452 -7.31991 242.53)" fill="#5AAD94"/>
<circle cx="31.5419" cy="352.592" r="9.105" transform="rotate(101.452 31.5419 352.592)" fill="#5AAD94"/>
<rect x="235" y="200" width="385" height="151" fill="#008080"/>
<path d="M332.867 255H328.912L334.938 237.545H339.693L345.71 255H341.756L337.384 241.534H337.247L332.867 255ZM332.62 248.139H341.96V251.02H332.62V248.139ZM351.573 247.432V255H347.942V241.909H351.403V244.219H351.556C351.846 243.457 352.331 242.855 353.013 242.412C353.695 241.963 354.522 241.739 355.493 241.739C356.403 241.739 357.195 241.938 357.871 242.335C358.547 242.733 359.073 243.301 359.448 244.04C359.823 244.773 360.01 245.648 360.01 246.665V255H356.38V247.312C356.385 246.511 356.181 245.886 355.766 245.438C355.351 244.983 354.78 244.756 354.053 244.756C353.564 244.756 353.133 244.861 352.758 245.071C352.388 245.281 352.099 245.588 351.888 245.991C351.684 246.389 351.579 246.869 351.573 247.432ZM372.558 255.247C371.723 255.247 370.978 255.102 370.325 254.812C369.672 254.517 369.155 254.082 368.774 253.509C368.399 252.929 368.211 252.207 368.211 251.344C368.211 250.616 368.345 250.006 368.612 249.511C368.879 249.017 369.243 248.619 369.703 248.318C370.163 248.017 370.686 247.79 371.271 247.636C371.862 247.483 372.481 247.375 373.129 247.312C373.89 247.233 374.504 247.159 374.97 247.091C375.436 247.017 375.774 246.909 375.984 246.767C376.194 246.625 376.299 246.415 376.299 246.136V246.085C376.299 245.545 376.129 245.128 375.788 244.832C375.453 244.537 374.976 244.389 374.356 244.389C373.703 244.389 373.183 244.534 372.797 244.824C372.41 245.108 372.155 245.466 372.03 245.898L368.672 245.625C368.842 244.83 369.177 244.142 369.677 243.562C370.177 242.977 370.822 242.528 371.612 242.216C372.407 241.898 373.328 241.739 374.373 241.739C375.101 241.739 375.797 241.824 376.461 241.994C377.132 242.165 377.726 242.429 378.243 242.787C378.765 243.145 379.177 243.605 379.478 244.168C379.78 244.724 379.93 245.392 379.93 246.17V255H376.487V253.185H376.385C376.174 253.594 375.893 253.955 375.541 254.267C375.189 254.574 374.765 254.815 374.271 254.991C373.777 255.162 373.206 255.247 372.558 255.247ZM373.598 252.741C374.132 252.741 374.603 252.636 375.013 252.426C375.422 252.21 375.743 251.92 375.976 251.557C376.209 251.193 376.325 250.781 376.325 250.321V248.932C376.211 249.006 376.055 249.074 375.856 249.136C375.663 249.193 375.444 249.247 375.2 249.298C374.956 249.344 374.711 249.386 374.467 249.426C374.223 249.46 374.001 249.491 373.802 249.52C373.376 249.582 373.004 249.682 372.686 249.818C372.368 249.955 372.12 250.139 371.944 250.372C371.768 250.599 371.68 250.884 371.68 251.224C371.68 251.719 371.859 252.097 372.217 252.358C372.581 252.614 373.041 252.741 373.598 252.741ZM382.946 255V241.909H386.406V244.219H386.56C386.832 243.452 387.287 242.847 387.923 242.403C388.56 241.96 389.321 241.739 390.207 241.739C391.105 241.739 391.869 241.963 392.5 242.412C393.131 242.855 393.551 243.457 393.761 244.219H393.898C394.165 243.469 394.648 242.869 395.347 242.42C396.051 241.966 396.884 241.739 397.844 241.739C399.065 241.739 400.057 242.128 400.818 242.906C401.585 243.679 401.969 244.776 401.969 246.196V255H398.347V246.912C398.347 246.185 398.153 245.639 397.767 245.276C397.381 244.912 396.898 244.73 396.318 244.73C395.659 244.73 395.145 244.94 394.776 245.361C394.406 245.776 394.222 246.324 394.222 247.006V255H390.702V246.835C390.702 246.193 390.517 245.682 390.148 245.301C389.784 244.92 389.304 244.73 388.707 244.73C388.304 244.73 387.94 244.832 387.617 245.037C387.298 245.236 387.045 245.517 386.858 245.881C386.67 246.239 386.577 246.659 386.577 247.142V255H382.946ZM408.769 255.247C407.934 255.247 407.189 255.102 406.536 254.812C405.882 254.517 405.365 254.082 404.985 253.509C404.61 252.929 404.422 252.207 404.422 251.344C404.422 250.616 404.556 250.006 404.823 249.511C405.09 249.017 405.453 248.619 405.914 248.318C406.374 248.017 406.897 247.79 407.482 247.636C408.073 247.483 408.692 247.375 409.34 247.312C410.101 247.233 410.715 247.159 411.181 247.091C411.647 247.017 411.985 246.909 412.195 246.767C412.405 246.625 412.51 246.415 412.51 246.136V246.085C412.51 245.545 412.34 245.128 411.999 244.832C411.664 244.537 411.186 244.389 410.567 244.389C409.914 244.389 409.394 244.534 409.007 244.824C408.621 245.108 408.365 245.466 408.24 245.898L404.882 245.625C405.053 244.83 405.388 244.142 405.888 243.562C406.388 242.977 407.033 242.528 407.823 242.216C408.618 241.898 409.539 241.739 410.584 241.739C411.311 241.739 412.007 241.824 412.672 241.994C413.343 242.165 413.936 242.429 414.453 242.787C414.976 243.145 415.388 243.605 415.689 244.168C415.99 244.724 416.141 245.392 416.141 246.17V255H412.698V253.185H412.596C412.385 253.594 412.104 253.955 411.752 254.267C411.399 254.574 410.976 254.815 410.482 254.991C409.988 255.162 409.417 255.247 408.769 255.247ZM409.809 252.741C410.343 252.741 410.814 252.636 411.223 252.426C411.632 252.21 411.953 251.92 412.186 251.557C412.419 251.193 412.536 250.781 412.536 250.321V248.932C412.422 249.006 412.266 249.074 412.067 249.136C411.874 249.193 411.655 249.247 411.411 249.298C411.167 249.344 410.922 249.386 410.678 249.426C410.434 249.46 410.212 249.491 410.013 249.52C409.587 249.582 409.215 249.682 408.897 249.818C408.578 249.955 408.331 250.139 408.155 250.372C407.979 250.599 407.891 250.884 407.891 251.224C407.891 251.719 408.07 252.097 408.428 252.358C408.792 252.614 409.252 252.741 409.809 252.741ZM426.12 241.909V244.636H418.236V241.909H426.12ZM420.026 238.773H423.657V250.977C423.657 251.312 423.708 251.574 423.81 251.761C423.913 251.943 424.055 252.071 424.236 252.145C424.424 252.219 424.64 252.256 424.884 252.256C425.055 252.256 425.225 252.241 425.396 252.213C425.566 252.179 425.697 252.153 425.788 252.136L426.359 254.838C426.177 254.895 425.921 254.96 425.592 255.034C425.262 255.114 424.861 255.162 424.39 255.179C423.515 255.213 422.748 255.097 422.089 254.83C421.435 254.562 420.927 254.148 420.563 253.585C420.2 253.023 420.021 252.312 420.026 251.455V238.773ZM434.509 255.256C433.163 255.256 432.004 254.983 431.032 254.438C430.066 253.886 429.322 253.108 428.799 252.102C428.277 251.091 428.015 249.895 428.015 248.514C428.015 247.168 428.277 245.986 428.799 244.969C429.322 243.952 430.058 243.159 431.007 242.591C431.961 242.023 433.08 241.739 434.365 241.739C435.228 241.739 436.032 241.878 436.777 242.156C437.527 242.429 438.18 242.841 438.737 243.392C439.299 243.943 439.737 244.636 440.049 245.472C440.362 246.301 440.518 247.273 440.518 248.386V249.384H429.464V247.134H437.1C437.1 246.611 436.987 246.148 436.759 245.744C436.532 245.341 436.217 245.026 435.813 244.798C435.416 244.565 434.953 244.449 434.424 244.449C433.873 244.449 433.384 244.577 432.958 244.832C432.538 245.082 432.208 245.42 431.97 245.847C431.731 246.267 431.609 246.736 431.603 247.253V249.392C431.603 250.04 431.723 250.599 431.961 251.071C432.205 251.543 432.549 251.906 432.992 252.162C433.436 252.418 433.961 252.545 434.569 252.545C434.973 252.545 435.342 252.489 435.677 252.375C436.012 252.261 436.299 252.091 436.538 251.864C436.777 251.636 436.958 251.358 437.083 251.028L440.441 251.25C440.271 252.057 439.921 252.761 439.393 253.364C438.87 253.96 438.194 254.426 437.365 254.761C436.541 255.091 435.589 255.256 434.509 255.256ZM451.481 249.426V241.909H455.112V255H451.626V252.622H451.49C451.194 253.389 450.703 254.006 450.015 254.472C449.334 254.937 448.501 255.17 447.518 255.17C446.643 255.17 445.873 254.972 445.209 254.574C444.544 254.176 444.024 253.611 443.649 252.878C443.28 252.145 443.092 251.267 443.086 250.244V241.909H446.717V249.597C446.723 250.369 446.93 250.98 447.339 251.429C447.748 251.878 448.297 252.102 448.984 252.102C449.422 252.102 449.831 252.003 450.211 251.804C450.592 251.599 450.899 251.298 451.132 250.901C451.371 250.503 451.487 250.011 451.481 249.426ZM458.215 255V241.909H461.735V244.193H461.872C462.11 243.381 462.511 242.767 463.073 242.352C463.636 241.932 464.284 241.722 465.016 241.722C465.198 241.722 465.394 241.733 465.605 241.756C465.815 241.778 465.999 241.81 466.159 241.849V245.071C465.988 245.02 465.752 244.974 465.451 244.935C465.15 244.895 464.874 244.875 464.624 244.875C464.09 244.875 463.613 244.991 463.193 245.224C462.778 245.452 462.448 245.77 462.204 246.179C461.965 246.588 461.846 247.06 461.846 247.594V255H458.215ZM471.676 237.545V239.386C471.676 239.909 471.574 240.443 471.369 240.989C471.17 241.528 470.903 242.04 470.568 242.523C470.233 243 469.866 243.406 469.468 243.741L467.866 242.795C468.15 242.347 468.4 241.849 468.616 241.304C468.838 240.759 468.949 240.125 468.949 239.403V237.545H471.676ZM483.545 245.642L480.221 245.847C480.164 245.562 480.042 245.307 479.854 245.08C479.667 244.847 479.42 244.662 479.113 244.526C478.812 244.384 478.451 244.312 478.031 244.312C477.468 244.312 476.994 244.432 476.607 244.67C476.221 244.903 476.028 245.216 476.028 245.608C476.028 245.92 476.153 246.185 476.403 246.401C476.653 246.616 477.082 246.79 477.69 246.92L480.059 247.398C481.332 247.659 482.281 248.08 482.906 248.659C483.531 249.239 483.843 250 483.843 250.943C483.843 251.801 483.59 252.554 483.085 253.202C482.585 253.849 481.897 254.355 481.022 254.719C480.153 255.077 479.15 255.256 478.014 255.256C476.281 255.256 474.9 254.895 473.872 254.173C472.849 253.446 472.249 252.457 472.073 251.207L475.644 251.02C475.752 251.548 476.014 251.952 476.428 252.23C476.843 252.503 477.374 252.639 478.022 252.639C478.658 252.639 479.17 252.517 479.556 252.273C479.948 252.023 480.147 251.702 480.153 251.31C480.147 250.98 480.008 250.71 479.735 250.5C479.462 250.284 479.042 250.119 478.474 250.006L476.207 249.554C474.928 249.298 473.977 248.855 473.352 248.224C472.732 247.594 472.423 246.79 472.423 245.812C472.423 244.972 472.65 244.247 473.104 243.639C473.565 243.031 474.21 242.562 475.039 242.233C475.874 241.903 476.852 241.739 477.971 241.739C479.624 241.739 480.925 242.088 481.874 242.787C482.829 243.486 483.386 244.437 483.545 245.642ZM497.98 260.182C496.804 260.182 495.795 260.02 494.955 259.696C494.119 259.378 493.455 258.943 492.96 258.392C492.466 257.841 492.145 257.222 491.997 256.534L495.355 256.082C495.457 256.344 495.619 256.588 495.841 256.815C496.062 257.043 496.355 257.224 496.719 257.361C497.088 257.503 497.537 257.574 498.065 257.574C498.855 257.574 499.506 257.381 500.017 256.994C500.534 256.614 500.793 255.974 500.793 255.077V252.682H500.639C500.48 253.045 500.241 253.389 499.923 253.713C499.605 254.037 499.196 254.301 498.696 254.506C498.196 254.71 497.599 254.812 496.906 254.812C495.923 254.812 495.028 254.585 494.222 254.131C493.42 253.67 492.781 252.969 492.304 252.026C491.832 251.077 491.597 249.878 491.597 248.429C491.597 246.946 491.838 245.707 492.321 244.713C492.804 243.719 493.446 242.974 494.247 242.48C495.054 241.986 495.937 241.739 496.898 241.739C497.631 241.739 498.244 241.864 498.739 242.114C499.233 242.358 499.631 242.665 499.932 243.034C500.239 243.398 500.474 243.756 500.639 244.108H500.776V241.909H504.381V255.128C504.381 256.241 504.108 257.173 503.562 257.923C503.017 258.673 502.261 259.236 501.295 259.611C500.335 259.991 499.23 260.182 497.98 260.182ZM498.057 252.085C498.642 252.085 499.136 251.94 499.54 251.651C499.949 251.355 500.261 250.935 500.477 250.389C500.699 249.838 500.81 249.179 500.81 248.412C500.81 247.645 500.702 246.98 500.486 246.418C500.27 245.849 499.957 245.409 499.548 245.097C499.139 244.784 498.642 244.628 498.057 244.628C497.46 244.628 496.957 244.79 496.548 245.114C496.139 245.432 495.83 245.875 495.619 246.443C495.409 247.011 495.304 247.668 495.304 248.412C495.304 249.168 495.409 249.821 495.619 250.372C495.835 250.918 496.145 251.341 496.548 251.642C496.957 251.937 497.46 252.085 498.057 252.085ZM515.864 249.426V241.909H519.495V255H516.009V252.622H515.872C515.577 253.389 515.085 254.006 514.398 254.472C513.716 254.937 512.884 255.17 511.901 255.17C511.026 255.17 510.256 254.972 509.591 254.574C508.926 254.176 508.407 253.611 508.032 252.878C507.662 252.145 507.475 251.267 507.469 250.244V241.909H511.1V249.597C511.105 250.369 511.313 250.98 511.722 251.429C512.131 251.878 512.679 252.102 513.367 252.102C513.804 252.102 514.213 252.003 514.594 251.804C514.975 251.599 515.282 251.298 515.514 250.901C515.753 250.503 515.87 250.011 515.864 249.426ZM522.598 255V241.909H526.229V255H522.598ZM524.422 240.222C523.882 240.222 523.419 240.043 523.033 239.685C522.652 239.321 522.462 238.886 522.462 238.381C522.462 237.881 522.652 237.452 523.033 237.094C523.419 236.73 523.882 236.548 524.422 236.548C524.962 236.548 525.422 236.73 525.802 237.094C526.189 237.452 526.382 237.881 526.382 238.381C526.382 238.886 526.189 239.321 525.802 239.685C525.422 240.043 524.962 240.222 524.422 240.222ZM534.16 255.213C533.166 255.213 532.265 254.957 531.458 254.446C530.657 253.929 530.021 253.17 529.549 252.17C529.083 251.165 528.85 249.932 528.85 248.472C528.85 246.972 529.092 245.724 529.575 244.73C530.058 243.73 530.7 242.983 531.501 242.489C532.308 241.989 533.191 241.739 534.151 241.739C534.884 241.739 535.495 241.864 535.984 242.114C536.478 242.358 536.876 242.665 537.177 243.034C537.484 243.398 537.717 243.756 537.876 244.108H537.987V237.545H541.609V255H538.029V252.903H537.876C537.705 253.267 537.464 253.628 537.151 253.986C536.845 254.338 536.444 254.631 535.95 254.864C535.461 255.097 534.865 255.213 534.16 255.213ZM535.311 252.324C535.896 252.324 536.39 252.165 536.794 251.847C537.203 251.523 537.515 251.071 537.731 250.491C537.953 249.912 538.063 249.233 538.063 248.455C538.063 247.676 537.955 247 537.74 246.426C537.524 245.852 537.211 245.409 536.802 245.097C536.393 244.784 535.896 244.628 535.311 244.628C534.714 244.628 534.211 244.79 533.802 245.114C533.393 245.437 533.083 245.886 532.873 246.46C532.663 247.034 532.558 247.699 532.558 248.455C532.558 249.216 532.663 249.889 532.873 250.474C533.089 251.054 533.399 251.509 533.802 251.838C534.211 252.162 534.714 252.324 535.311 252.324ZM550.759 255.256C549.412 255.256 548.253 254.983 547.282 254.438C546.316 253.886 545.572 253.108 545.049 252.102C544.526 251.091 544.265 249.895 544.265 248.514C544.265 247.168 544.526 245.986 545.049 244.969C545.572 243.952 546.307 243.159 547.256 242.591C548.211 242.023 549.33 241.739 550.614 241.739C551.478 241.739 552.282 241.878 553.026 242.156C553.776 242.429 554.429 242.841 554.986 243.392C555.549 243.943 555.986 244.636 556.299 245.472C556.611 246.301 556.768 247.273 556.768 248.386V249.384H545.714V247.134H553.35C553.35 246.611 553.236 246.148 553.009 245.744C552.782 245.341 552.466 245.026 552.063 244.798C551.665 244.565 551.202 244.449 550.674 244.449C550.123 244.449 549.634 244.577 549.208 244.832C548.787 245.082 548.458 245.42 548.219 245.847C547.981 246.267 547.858 246.736 547.853 247.253V249.392C547.853 250.04 547.972 250.599 548.211 251.071C548.455 251.543 548.799 251.906 549.242 252.162C549.685 252.418 550.211 252.545 550.819 252.545C551.222 252.545 551.591 252.489 551.927 252.375C552.262 252.261 552.549 252.091 552.787 251.864C553.026 251.636 553.208 251.358 553.333 251.028L556.691 251.25C556.52 252.057 556.171 252.761 555.643 253.364C555.12 253.96 554.444 254.426 553.614 254.761C552.79 255.091 551.839 255.256 550.759 255.256ZM572.053 241.909V244.636H564.169V241.909H572.053ZM565.959 238.773H569.59V250.977C569.59 251.312 569.641 251.574 569.743 251.761C569.846 251.943 569.988 252.071 570.169 252.145C570.357 252.219 570.573 252.256 570.817 252.256C570.988 252.256 571.158 252.241 571.329 252.213C571.499 252.179 571.63 252.153 571.721 252.136L572.292 254.838C572.11 254.895 571.854 254.96 571.525 255.034C571.195 255.114 570.794 255.162 570.323 255.179C569.448 255.213 568.681 255.097 568.022 254.83C567.368 254.562 566.86 254.148 566.496 253.585C566.132 253.023 565.954 252.312 565.959 251.455V238.773ZM580.391 255.256C579.067 255.256 577.923 254.974 576.957 254.412C575.996 253.844 575.255 253.054 574.732 252.043C574.21 251.026 573.948 249.847 573.948 248.506C573.948 247.153 574.21 245.972 574.732 244.96C575.255 243.943 575.996 243.153 576.957 242.591C577.923 242.023 579.067 241.739 580.391 241.739C581.715 241.739 582.857 242.023 583.817 242.591C584.783 243.153 585.528 243.943 586.05 244.96C586.573 245.972 586.835 247.153 586.835 248.506C586.835 249.847 586.573 251.026 586.05 252.043C585.528 253.054 584.783 253.844 583.817 254.412C582.857 254.974 581.715 255.256 580.391 255.256ZM580.408 252.443C581.011 252.443 581.514 252.273 581.917 251.932C582.32 251.585 582.624 251.114 582.829 250.517C583.039 249.92 583.144 249.241 583.144 248.48C583.144 247.719 583.039 247.04 582.829 246.443C582.624 245.847 582.32 245.375 581.917 245.028C581.514 244.682 581.011 244.509 580.408 244.509C579.8 244.509 579.289 244.682 578.874 245.028C578.465 245.375 578.156 245.847 577.945 246.443C577.741 247.04 577.639 247.719 577.639 248.48C577.639 249.241 577.741 249.92 577.945 250.517C578.156 251.114 578.465 251.585 578.874 251.932C579.289 252.273 579.8 252.443 580.408 252.443ZM340.428 266.545V284H336.798V266.545H340.428ZM349.502 284.256C348.155 284.256 346.996 283.983 346.025 283.438C345.059 282.886 344.314 282.108 343.792 281.102C343.269 280.091 343.008 278.895 343.008 277.514C343.008 276.168 343.269 274.986 343.792 273.969C344.314 272.952 345.05 272.159 345.999 271.591C346.954 271.023 348.073 270.739 349.357 270.739C350.221 270.739 351.025 270.878 351.769 271.156C352.519 271.429 353.172 271.841 353.729 272.392C354.292 272.943 354.729 273.636 355.042 274.472C355.354 275.301 355.51 276.273 355.51 277.386V278.384H344.457V276.134H352.093C352.093 275.611 351.979 275.148 351.752 274.744C351.525 274.341 351.209 274.026 350.806 273.798C350.408 273.565 349.945 273.449 349.417 273.449C348.866 273.449 348.377 273.577 347.951 273.832C347.53 274.082 347.201 274.42 346.962 274.847C346.724 275.267 346.601 275.736 346.596 276.253V278.392C346.596 279.04 346.715 279.599 346.954 280.071C347.198 280.543 347.542 280.906 347.985 281.162C348.428 281.418 348.954 281.545 349.562 281.545C349.965 281.545 350.334 281.489 350.67 281.375C351.005 281.261 351.292 281.091 351.53 280.864C351.769 280.636 351.951 280.358 352.076 280.028L355.434 280.25C355.263 281.057 354.914 281.761 354.385 282.364C353.863 282.96 353.187 283.426 352.357 283.761C351.533 284.091 350.582 284.256 349.502 284.256ZM361.812 284.247C360.977 284.247 360.232 284.102 359.579 283.812C358.926 283.517 358.409 283.082 358.028 282.509C357.653 281.929 357.465 281.207 357.465 280.344C357.465 279.616 357.599 279.006 357.866 278.511C358.133 278.017 358.497 277.619 358.957 277.318C359.417 277.017 359.94 276.79 360.525 276.636C361.116 276.483 361.735 276.375 362.383 276.312C363.144 276.233 363.758 276.159 364.224 276.091C364.69 276.017 365.028 275.909 365.238 275.767C365.448 275.625 365.553 275.415 365.553 275.136V275.085C365.553 274.545 365.383 274.128 365.042 273.832C364.707 273.537 364.23 273.389 363.61 273.389C362.957 273.389 362.437 273.534 362.051 273.824C361.664 274.108 361.409 274.466 361.284 274.898L357.926 274.625C358.096 273.83 358.431 273.142 358.931 272.562C359.431 271.977 360.076 271.528 360.866 271.216C361.661 270.898 362.582 270.739 363.627 270.739C364.355 270.739 365.051 270.824 365.715 270.994C366.386 271.165 366.98 271.429 367.497 271.787C368.019 272.145 368.431 272.605 368.732 273.168C369.034 273.724 369.184 274.392 369.184 275.17V284H365.741V282.185H365.639C365.428 282.594 365.147 282.955 364.795 283.267C364.443 283.574 364.019 283.815 363.525 283.991C363.031 284.162 362.46 284.247 361.812 284.247ZM362.852 281.741C363.386 281.741 363.857 281.636 364.266 281.426C364.676 281.21 364.997 280.92 365.23 280.557C365.462 280.193 365.579 279.781 365.579 279.321V277.932C365.465 278.006 365.309 278.074 365.11 278.136C364.917 278.193 364.698 278.247 364.454 278.298C364.21 278.344 363.965 278.386 363.721 278.426C363.477 278.46 363.255 278.491 363.056 278.52C362.63 278.582 362.258 278.682 361.94 278.818C361.622 278.955 361.374 279.139 361.198 279.372C361.022 279.599 360.934 279.884 360.934 280.224C360.934 280.719 361.113 281.097 361.471 281.358C361.835 281.614 362.295 281.741 362.852 281.741ZM377.024 284.213C376.03 284.213 375.129 283.957 374.322 283.446C373.521 282.929 372.885 282.17 372.413 281.17C371.947 280.165 371.714 278.932 371.714 277.472C371.714 275.972 371.956 274.724 372.439 273.73C372.922 272.73 373.564 271.983 374.365 271.489C375.172 270.989 376.055 270.739 377.015 270.739C377.748 270.739 378.359 270.864 378.848 271.114C379.342 271.358 379.74 271.665 380.041 272.034C380.348 272.398 380.581 272.756 380.74 273.108H380.851V266.545H384.473V284H380.893V281.903H380.74C380.569 282.267 380.328 282.628 380.015 282.986C379.709 283.338 379.308 283.631 378.814 283.864C378.325 284.097 377.728 284.213 377.024 284.213ZM378.174 281.324C378.76 281.324 379.254 281.165 379.657 280.847C380.067 280.523 380.379 280.071 380.595 279.491C380.817 278.912 380.927 278.233 380.927 277.455C380.927 276.676 380.819 276 380.603 275.426C380.388 274.852 380.075 274.409 379.666 274.097C379.257 273.784 378.76 273.628 378.174 273.628C377.578 273.628 377.075 273.79 376.666 274.114C376.257 274.437 375.947 274.886 375.737 275.46C375.527 276.034 375.422 276.699 375.422 277.455C375.422 278.216 375.527 278.889 375.737 279.474C375.953 280.054 376.263 280.509 376.666 280.838C377.075 281.162 377.578 281.324 378.174 281.324ZM387.657 284V270.909H391.288V284H387.657ZM389.481 269.222C388.941 269.222 388.478 269.043 388.092 268.685C387.711 268.321 387.521 267.886 387.521 267.381C387.521 266.881 387.711 266.452 388.092 266.094C388.478 265.73 388.941 265.548 389.481 265.548C390.021 265.548 390.481 265.73 390.862 266.094C391.248 266.452 391.441 266.881 391.441 267.381C391.441 267.886 391.248 268.321 390.862 268.685C390.481 269.043 390.021 269.222 389.481 269.222ZM398.026 276.432V284H394.395V270.909H397.855V273.219H398.009C398.299 272.457 398.784 271.855 399.466 271.412C400.148 270.963 400.975 270.739 401.946 270.739C402.855 270.739 403.648 270.938 404.324 271.335C405 271.733 405.526 272.301 405.901 273.04C406.276 273.773 406.463 274.648 406.463 275.665V284H402.833V276.312C402.838 275.511 402.634 274.886 402.219 274.438C401.804 273.983 401.233 273.756 400.506 273.756C400.017 273.756 399.586 273.861 399.211 274.071C398.841 274.281 398.551 274.588 398.341 274.991C398.137 275.389 398.032 275.869 398.026 276.432ZM415.422 289.182C414.246 289.182 413.237 289.02 412.396 288.696C411.561 288.378 410.896 287.943 410.402 287.392C409.908 286.841 409.587 286.222 409.439 285.534L412.797 285.082C412.899 285.344 413.061 285.588 413.283 285.815C413.504 286.043 413.797 286.224 414.16 286.361C414.53 286.503 414.979 286.574 415.507 286.574C416.297 286.574 416.947 286.381 417.459 285.994C417.976 285.614 418.234 284.974 418.234 284.077V281.682H418.081C417.922 282.045 417.683 282.389 417.365 282.713C417.047 283.037 416.638 283.301 416.138 283.506C415.638 283.71 415.041 283.812 414.348 283.812C413.365 283.812 412.47 283.585 411.663 283.131C410.862 282.67 410.223 281.969 409.746 281.026C409.274 280.077 409.038 278.878 409.038 277.429C409.038 275.946 409.28 274.707 409.763 273.713C410.246 272.719 410.888 271.974 411.689 271.48C412.496 270.986 413.379 270.739 414.339 270.739C415.072 270.739 415.686 270.864 416.18 271.114C416.675 271.358 417.072 271.665 417.374 272.034C417.68 272.398 417.916 272.756 418.081 273.108H418.217V270.909H421.822V284.128C421.822 285.241 421.55 286.173 421.004 286.923C420.459 287.673 419.703 288.236 418.737 288.611C417.777 288.991 416.672 289.182 415.422 289.182ZM415.499 281.085C416.084 281.085 416.578 280.94 416.981 280.651C417.391 280.355 417.703 279.935 417.919 279.389C418.141 278.838 418.251 278.179 418.251 277.412C418.251 276.645 418.143 275.98 417.928 275.418C417.712 274.849 417.399 274.409 416.99 274.097C416.581 273.784 416.084 273.628 415.499 273.628C414.902 273.628 414.399 273.79 413.99 274.114C413.581 274.432 413.271 274.875 413.061 275.443C412.851 276.011 412.746 276.668 412.746 277.412C412.746 278.168 412.851 278.821 413.061 279.372C413.277 279.918 413.587 280.341 413.99 280.642C414.399 280.937 414.902 281.085 415.499 281.085ZM434.398 284.247C433.562 284.247 432.818 284.102 432.165 283.812C431.511 283.517 430.994 283.082 430.613 282.509C430.238 281.929 430.051 281.207 430.051 280.344C430.051 279.616 430.185 279.006 430.452 278.511C430.719 278.017 431.082 277.619 431.542 277.318C432.003 277.017 432.525 276.79 433.111 276.636C433.702 276.483 434.321 276.375 434.969 276.312C435.73 276.233 436.344 276.159 436.81 276.091C437.275 276.017 437.613 275.909 437.824 275.767C438.034 275.625 438.139 275.415 438.139 275.136V275.085C438.139 274.545 437.969 274.128 437.628 273.832C437.292 273.537 436.815 273.389 436.196 273.389C435.542 273.389 435.023 273.534 434.636 273.824C434.25 274.108 433.994 274.466 433.869 274.898L430.511 274.625C430.682 273.83 431.017 273.142 431.517 272.562C432.017 271.977 432.662 271.528 433.452 271.216C434.247 270.898 435.167 270.739 436.213 270.739C436.94 270.739 437.636 270.824 438.301 270.994C438.971 271.165 439.565 271.429 440.082 271.787C440.605 272.145 441.017 272.605 441.318 273.168C441.619 273.724 441.77 274.392 441.77 275.17V284H438.327V282.185H438.224C438.014 282.594 437.733 282.955 437.381 283.267C437.028 283.574 436.605 283.815 436.111 283.991C435.616 284.162 435.045 284.247 434.398 284.247ZM435.437 281.741C435.971 281.741 436.443 281.636 436.852 281.426C437.261 281.21 437.582 280.92 437.815 280.557C438.048 280.193 438.165 279.781 438.165 279.321V277.932C438.051 278.006 437.895 278.074 437.696 278.136C437.503 278.193 437.284 278.247 437.04 278.298C436.795 278.344 436.551 278.386 436.307 278.426C436.062 278.46 435.841 278.491 435.642 278.52C435.216 278.582 434.844 278.682 434.525 278.818C434.207 278.955 433.96 279.139 433.784 279.372C433.608 279.599 433.52 279.884 433.52 280.224C433.52 280.719 433.699 281.097 434.057 281.358C434.42 281.614 434.881 281.741 435.437 281.741ZM461.432 274.642L458.108 274.847C458.051 274.562 457.929 274.307 457.741 274.08C457.554 273.847 457.307 273.662 457 273.526C456.699 273.384 456.338 273.312 455.917 273.312C455.355 273.312 454.88 273.432 454.494 273.67C454.108 273.903 453.915 274.216 453.915 274.608C453.915 274.92 454.04 275.185 454.29 275.401C454.54 275.616 454.969 275.79 455.576 275.92L457.946 276.398C459.219 276.659 460.167 277.08 460.792 277.659C461.417 278.239 461.73 279 461.73 279.943C461.73 280.801 461.477 281.554 460.971 282.202C460.471 282.849 459.784 283.355 458.909 283.719C458.04 284.077 457.037 284.256 455.9 284.256C454.167 284.256 452.787 283.895 451.758 283.173C450.736 282.446 450.136 281.457 449.96 280.207L453.531 280.02C453.639 280.548 453.9 280.952 454.315 281.23C454.73 281.503 455.261 281.639 455.909 281.639C456.545 281.639 457.057 281.517 457.443 281.273C457.835 281.023 458.034 280.702 458.04 280.31C458.034 279.98 457.895 279.71 457.622 279.5C457.349 279.284 456.929 279.119 456.361 279.006L454.094 278.554C452.815 278.298 451.863 277.855 451.238 277.224C450.619 276.594 450.309 275.79 450.309 274.812C450.309 273.972 450.537 273.247 450.991 272.639C451.451 272.031 452.096 271.562 452.926 271.233C453.761 270.903 454.738 270.739 455.858 270.739C457.511 270.739 458.812 271.088 459.761 271.787C460.716 272.486 461.272 273.437 461.432 274.642ZM472.61 278.426V270.909H476.241V284H472.755V281.622H472.619C472.323 282.389 471.832 283.006 471.144 283.472C470.462 283.937 469.63 284.17 468.647 284.17C467.772 284.17 467.002 283.972 466.337 283.574C465.673 283.176 465.153 282.611 464.778 281.878C464.408 281.145 464.221 280.267 464.215 279.244V270.909H467.846V278.597C467.852 279.369 468.059 279.98 468.468 280.429C468.877 280.878 469.425 281.102 470.113 281.102C470.55 281.102 470.96 281.003 471.34 280.804C471.721 280.599 472.028 280.298 472.261 279.901C472.499 279.503 472.616 279.011 472.61 278.426ZM490.236 274.642L486.912 274.847C486.855 274.562 486.733 274.307 486.546 274.08C486.358 273.847 486.111 273.662 485.804 273.526C485.503 273.384 485.142 273.312 484.722 273.312C484.159 273.312 483.685 273.432 483.299 273.67C482.912 273.903 482.719 274.216 482.719 274.608C482.719 274.92 482.844 275.185 483.094 275.401C483.344 275.616 483.773 275.79 484.381 275.92L486.75 276.398C488.023 276.659 488.972 277.08 489.597 277.659C490.222 278.239 490.534 279 490.534 279.943C490.534 280.801 490.282 281.554 489.776 282.202C489.276 282.849 488.588 283.355 487.713 283.719C486.844 284.077 485.841 284.256 484.705 284.256C482.972 284.256 481.591 283.895 480.563 283.173C479.54 282.446 478.941 281.457 478.765 280.207L482.336 280.02C482.444 280.548 482.705 280.952 483.12 281.23C483.534 281.503 484.066 281.639 484.713 281.639C485.35 281.639 485.861 281.517 486.248 281.273C486.64 281.023 486.838 280.702 486.844 280.31C486.838 279.98 486.699 279.71 486.427 279.5C486.154 279.284 485.733 279.119 485.165 279.006L482.898 278.554C481.62 278.298 480.668 277.855 480.043 277.224C479.424 276.594 479.114 275.79 479.114 274.812C479.114 273.972 479.341 273.247 479.796 272.639C480.256 272.031 480.901 271.562 481.73 271.233C482.566 270.903 483.543 270.739 484.662 270.739C486.316 270.739 487.617 271.088 488.566 271.787C489.52 272.486 490.077 273.437 490.236 274.642ZM499.983 270.909V273.636H492.099V270.909H499.983ZM493.889 267.773H497.52V279.977C497.52 280.312 497.571 280.574 497.673 280.761C497.776 280.943 497.918 281.071 498.099 281.145C498.287 281.219 498.503 281.256 498.747 281.256C498.918 281.256 499.088 281.241 499.258 281.213C499.429 281.179 499.56 281.153 499.651 281.136L500.222 283.838C500.04 283.895 499.784 283.96 499.455 284.034C499.125 284.114 498.724 284.162 498.253 284.179C497.378 284.213 496.611 284.097 495.952 283.83C495.298 283.562 494.79 283.148 494.426 282.585C494.062 282.023 493.883 281.312 493.889 280.455V267.773ZM506.28 284.247C505.445 284.247 504.701 284.102 504.047 283.812C503.394 283.517 502.877 283.082 502.496 282.509C502.121 281.929 501.934 281.207 501.934 280.344C501.934 279.616 502.067 279.006 502.334 278.511C502.601 278.017 502.965 277.619 503.425 277.318C503.885 277.017 504.408 276.79 504.993 276.636C505.584 276.483 506.203 276.375 506.851 276.312C507.613 276.233 508.226 276.159 508.692 276.091C509.158 276.017 509.496 275.909 509.706 275.767C509.916 275.625 510.022 275.415 510.022 275.136V275.085C510.022 274.545 509.851 274.128 509.51 273.832C509.175 273.537 508.698 273.389 508.078 273.389C507.425 273.389 506.905 273.534 506.519 273.824C506.132 274.108 505.877 274.466 505.752 274.898L502.394 274.625C502.564 273.83 502.899 273.142 503.399 272.562C503.899 271.977 504.544 271.528 505.334 271.216C506.13 270.898 507.05 270.739 508.095 270.739C508.823 270.739 509.519 270.824 510.184 270.994C510.854 271.165 511.448 271.429 511.965 271.787C512.488 272.145 512.899 272.605 513.201 273.168C513.502 273.724 513.652 274.392 513.652 275.17V284H510.209V282.185H510.107C509.897 282.594 509.615 282.955 509.263 283.267C508.911 283.574 508.488 283.815 507.993 283.991C507.499 284.162 506.928 284.247 506.28 284.247ZM507.32 281.741C507.854 281.741 508.326 281.636 508.735 281.426C509.144 281.21 509.465 280.92 509.698 280.557C509.931 280.193 510.047 279.781 510.047 279.321V277.932C509.934 278.006 509.777 278.074 509.578 278.136C509.385 278.193 509.166 278.247 508.922 278.298C508.678 278.344 508.434 278.386 508.189 278.426C507.945 278.46 507.723 278.491 507.524 278.52C507.098 278.582 506.726 278.682 506.408 278.818C506.09 278.955 505.843 279.139 505.666 279.372C505.49 279.599 505.402 279.884 505.402 280.224C505.402 280.719 505.581 281.097 505.939 281.358C506.303 281.614 506.763 281.741 507.32 281.741ZM516.668 284V270.909H520.299V284H516.668ZM518.492 269.222C517.952 269.222 517.489 269.043 517.103 268.685C516.722 268.321 516.532 267.886 516.532 267.381C516.532 266.881 516.722 266.452 517.103 266.094C517.489 265.73 517.952 265.548 518.492 265.548C519.032 265.548 519.492 265.73 519.873 266.094C520.259 266.452 520.452 266.881 520.452 267.381C520.452 267.886 520.259 268.321 519.873 268.685C519.492 269.043 519.032 269.222 518.492 269.222ZM527.037 276.432V284H523.406V270.909H526.867V273.219H527.02C527.31 272.457 527.796 271.855 528.477 271.412C529.159 270.963 529.986 270.739 530.958 270.739C531.867 270.739 532.659 270.938 533.335 271.335C534.012 271.733 534.537 272.301 534.912 273.04C535.287 273.773 535.475 274.648 535.475 275.665V284H531.844V276.312C531.85 275.511 531.645 274.886 531.23 274.438C530.816 273.983 530.245 273.756 529.517 273.756C529.029 273.756 528.597 273.861 528.222 274.071C527.852 274.281 527.563 274.588 527.352 274.991C527.148 275.389 527.043 275.869 527.037 276.432ZM542.268 284.247C541.433 284.247 540.689 284.102 540.035 283.812C539.382 283.517 538.865 283.082 538.484 282.509C538.109 281.929 537.922 281.207 537.922 280.344C537.922 279.616 538.055 279.006 538.322 278.511C538.589 278.017 538.953 277.619 539.413 277.318C539.873 277.017 540.396 276.79 540.981 276.636C541.572 276.483 542.192 276.375 542.839 276.312C543.601 276.233 544.214 276.159 544.68 276.091C545.146 276.017 545.484 275.909 545.694 275.767C545.905 275.625 546.01 275.415 546.01 275.136V275.085C546.01 274.545 545.839 274.128 545.498 273.832C545.163 273.537 544.686 273.389 544.067 273.389C543.413 273.389 542.893 273.534 542.507 273.824C542.121 274.108 541.865 274.466 541.74 274.898L538.382 274.625C538.552 273.83 538.888 273.142 539.388 272.562C539.888 271.977 540.532 271.528 541.322 271.216C542.118 270.898 543.038 270.739 544.084 270.739C544.811 270.739 545.507 270.824 546.172 270.994C546.842 271.165 547.436 271.429 547.953 271.787C548.476 272.145 548.888 272.605 549.189 273.168C549.49 273.724 549.64 274.392 549.64 275.17V284H546.197V282.185H546.095C545.885 282.594 545.603 282.955 545.251 283.267C544.899 283.574 544.476 283.815 543.981 283.991C543.487 284.162 542.916 284.247 542.268 284.247ZM543.308 281.741C543.842 281.741 544.314 281.636 544.723 281.426C545.132 281.21 545.453 280.92 545.686 280.557C545.919 280.193 546.035 279.781 546.035 279.321V277.932C545.922 278.006 545.765 278.074 545.567 278.136C545.373 278.193 545.155 278.247 544.91 278.298C544.666 278.344 544.422 278.386 544.177 278.426C543.933 278.46 543.711 278.491 543.513 278.52C543.086 278.582 542.714 278.682 542.396 278.818C542.078 278.955 541.831 279.139 541.655 279.372C541.478 279.599 541.39 279.884 541.39 280.224C541.39 280.719 541.569 281.097 541.927 281.358C542.291 281.614 542.751 281.741 543.308 281.741ZM552.725 284V266.545H556.355V273.108H556.466C556.625 272.756 556.855 272.398 557.156 272.034C557.463 271.665 557.861 271.358 558.35 271.114C558.844 270.864 559.457 270.739 560.19 270.739C561.145 270.739 562.026 270.989 562.832 271.489C563.639 271.983 564.284 272.73 564.767 273.73C565.25 274.724 565.492 275.972 565.492 277.472C565.492 278.932 565.256 280.165 564.784 281.17C564.318 282.17 563.682 282.929 562.875 283.446C562.074 283.957 561.176 284.213 560.182 284.213C559.477 284.213 558.878 284.097 558.384 283.864C557.895 283.631 557.494 283.338 557.182 282.986C556.869 282.628 556.631 282.267 556.466 281.903H556.304V284H552.725ZM556.279 277.455C556.279 278.233 556.386 278.912 556.602 279.491C556.818 280.071 557.131 280.523 557.54 280.847C557.949 281.165 558.446 281.324 559.031 281.324C559.622 281.324 560.122 281.162 560.531 280.838C560.94 280.509 561.25 280.054 561.46 279.474C561.676 278.889 561.784 278.216 561.784 277.455C561.784 276.699 561.679 276.034 561.469 275.46C561.259 274.886 560.949 274.437 560.54 274.114C560.131 273.79 559.628 273.628 559.031 273.628C558.44 273.628 557.94 273.784 557.531 274.097C557.128 274.409 556.818 274.852 556.602 275.426C556.386 276 556.279 276.676 556.279 277.455ZM571.744 266.545V284H568.113V266.545H571.744ZM580.817 284.256C579.471 284.256 578.312 283.983 577.34 283.438C576.374 282.886 575.63 282.108 575.107 281.102C574.585 280.091 574.323 278.895 574.323 277.514C574.323 276.168 574.585 274.986 575.107 273.969C575.63 272.952 576.366 272.159 577.315 271.591C578.269 271.023 579.389 270.739 580.673 270.739C581.536 270.739 582.34 270.878 583.085 271.156C583.835 271.429 584.488 271.841 585.045 272.392C585.607 272.943 586.045 273.636 586.357 274.472C586.67 275.301 586.826 276.273 586.826 277.386V278.384H575.772V276.134H583.408C583.408 275.611 583.295 275.148 583.067 274.744C582.84 274.341 582.525 274.026 582.121 273.798C581.724 273.565 581.261 273.449 580.732 273.449C580.181 273.449 579.692 273.577 579.266 273.832C578.846 274.082 578.516 274.42 578.278 274.847C578.039 275.267 577.917 275.736 577.911 276.253V278.392C577.911 279.04 578.031 279.599 578.269 280.071C578.514 280.543 578.857 280.906 579.3 281.162C579.744 281.418 580.269 281.545 580.877 281.545C581.281 281.545 581.65 281.489 581.985 281.375C582.32 281.261 582.607 281.091 582.846 280.864C583.085 280.636 583.266 280.358 583.391 280.028L586.749 280.25C586.579 281.057 586.229 281.761 585.701 282.364C585.178 282.96 584.502 283.426 583.673 283.761C582.849 284.091 581.897 284.256 580.817 284.256ZM405.725 295.545V313H402.094V295.545H405.725ZM408.833 313V299.909H412.463V313H408.833ZM410.657 298.222C410.117 298.222 409.654 298.043 409.267 297.685C408.887 297.321 408.696 296.886 408.696 296.381C408.696 295.881 408.887 295.452 409.267 295.094C409.654 294.73 410.117 294.548 410.657 294.548C411.196 294.548 411.657 294.73 412.037 295.094C412.424 295.452 412.617 295.881 412.617 296.381C412.617 296.886 412.424 297.321 412.037 297.685C411.657 298.043 411.196 298.222 410.657 298.222ZM422.611 299.909V302.636H414.531V299.909H422.611ZM416.381 313V298.963C416.381 298.014 416.565 297.227 416.935 296.602C417.31 295.977 417.821 295.509 418.469 295.196C419.116 294.884 419.852 294.727 420.676 294.727C421.233 294.727 421.741 294.77 422.202 294.855C422.668 294.94 423.014 295.017 423.241 295.085L422.594 297.812C422.452 297.767 422.276 297.724 422.065 297.685C421.861 297.645 421.651 297.625 421.435 297.625C420.901 297.625 420.528 297.75 420.318 298C420.108 298.244 420.003 298.588 420.003 299.031V313H416.381ZM430.525 313.256C429.179 313.256 428.019 312.983 427.048 312.438C426.082 311.886 425.338 311.108 424.815 310.102C424.292 309.091 424.031 307.895 424.031 306.514C424.031 305.168 424.292 303.986 424.815 302.969C425.338 301.952 426.073 301.159 427.022 300.591C427.977 300.023 429.096 299.739 430.38 299.739C431.244 299.739 432.048 299.878 432.792 300.156C433.542 300.429 434.196 300.841 434.752 301.392C435.315 301.943 435.752 302.636 436.065 303.472C436.377 304.301 436.534 305.273 436.534 306.386V307.384H425.48V305.134H433.116C433.116 304.611 433.002 304.148 432.775 303.744C432.548 303.341 432.232 303.026 431.829 302.798C431.431 302.565 430.968 302.449 430.44 302.449C429.889 302.449 429.4 302.577 428.974 302.832C428.554 303.082 428.224 303.42 427.985 303.847C427.747 304.267 427.625 304.736 427.619 305.253V307.392C427.619 308.04 427.738 308.599 427.977 309.071C428.221 309.543 428.565 309.906 429.008 310.162C429.451 310.418 429.977 310.545 430.585 310.545C430.988 310.545 431.357 310.489 431.693 310.375C432.028 310.261 432.315 310.091 432.554 309.864C432.792 309.636 432.974 309.358 433.099 309.028L436.457 309.25C436.286 310.057 435.937 310.761 435.409 311.364C434.886 311.96 434.21 312.426 433.38 312.761C432.556 313.091 431.605 313.256 430.525 313.256ZM449.994 303.642L446.67 303.847C446.613 303.562 446.491 303.307 446.304 303.08C446.116 302.847 445.869 302.662 445.562 302.526C445.261 302.384 444.9 302.312 444.48 302.312C443.917 302.312 443.443 302.432 443.057 302.67C442.67 302.903 442.477 303.216 442.477 303.608C442.477 303.92 442.602 304.185 442.852 304.401C443.102 304.616 443.531 304.79 444.139 304.92L446.508 305.398C447.781 305.659 448.73 306.08 449.355 306.659C449.98 307.239 450.292 308 450.292 308.943C450.292 309.801 450.04 310.554 449.534 311.202C449.034 311.849 448.346 312.355 447.471 312.719C446.602 313.077 445.599 313.256 444.463 313.256C442.73 313.256 441.349 312.895 440.321 312.173C439.298 311.446 438.699 310.457 438.523 309.207L442.094 309.02C442.202 309.548 442.463 309.952 442.878 310.23C443.292 310.503 443.824 310.639 444.471 310.639C445.108 310.639 445.619 310.517 446.006 310.273C446.398 310.023 446.596 309.702 446.602 309.31C446.596 308.98 446.457 308.71 446.185 308.5C445.912 308.284 445.491 308.119 444.923 308.006L442.656 307.554C441.378 307.298 440.426 306.855 439.801 306.224C439.182 305.594 438.872 304.79 438.872 303.812C438.872 302.972 439.099 302.247 439.554 301.639C440.014 301.031 440.659 300.562 441.488 300.233C442.324 299.903 443.301 299.739 444.42 299.739C446.074 299.739 447.375 300.088 448.324 300.787C449.278 301.486 449.835 302.437 449.994 303.642ZM459.741 299.909V302.636H451.857V299.909H459.741ZM453.647 296.773H457.278V308.977C457.278 309.312 457.329 309.574 457.431 309.761C457.534 309.943 457.676 310.071 457.857 310.145C458.045 310.219 458.261 310.256 458.505 310.256C458.676 310.256 458.846 310.241 459.016 310.213C459.187 310.179 459.318 310.153 459.409 310.136L459.98 312.838C459.798 312.895 459.542 312.96 459.213 313.034C458.883 313.114 458.482 313.162 458.011 313.179C457.136 313.213 456.369 313.097 455.71 312.83C455.056 312.562 454.548 312.148 454.184 311.585C453.82 311.023 453.641 310.312 453.647 309.455V296.773ZM464.547 317.909C464.086 317.909 463.655 317.872 463.251 317.798C462.853 317.73 462.524 317.642 462.263 317.534L463.081 314.824C463.507 314.955 463.89 315.026 464.231 315.037C464.578 315.048 464.876 314.969 465.126 314.798C465.382 314.628 465.589 314.338 465.748 313.929L465.961 313.375L461.265 299.909H465.084L467.794 309.523H467.93L470.666 299.909H474.51L469.422 314.415C469.177 315.119 468.845 315.733 468.424 316.256C468.01 316.784 467.484 317.19 466.848 317.474C466.211 317.764 465.444 317.909 464.547 317.909ZM480.197 295.545V313H476.567V295.545H480.197ZM489.271 313.256C487.924 313.256 486.765 312.983 485.794 312.438C484.828 311.886 484.083 311.108 483.561 310.102C483.038 309.091 482.777 307.895 482.777 306.514C482.777 305.168 483.038 303.986 483.561 302.969C484.083 301.952 484.819 301.159 485.768 300.591C486.723 300.023 487.842 299.739 489.126 299.739C489.99 299.739 490.794 299.878 491.538 300.156C492.288 300.429 492.941 300.841 493.498 301.392C494.061 301.943 494.498 302.636 494.811 303.472C495.123 304.301 495.279 305.273 495.279 306.386V307.384H484.226V305.134H491.862C491.862 304.611 491.748 304.148 491.521 303.744C491.294 303.341 490.978 303.026 490.575 302.798C490.177 302.565 489.714 302.449 489.186 302.449C488.635 302.449 488.146 302.577 487.72 302.832C487.299 303.082 486.97 303.42 486.731 303.847C486.493 304.267 486.37 304.736 486.365 305.253V307.392C486.365 308.04 486.484 308.599 486.723 309.071C486.967 309.543 487.311 309.906 487.754 310.162C488.197 310.418 488.723 310.545 489.331 310.545C489.734 310.545 490.103 310.489 490.439 310.375C490.774 310.261 491.061 310.091 491.299 309.864C491.538 309.636 491.72 309.358 491.845 309.028L495.203 309.25C495.032 310.057 494.683 310.761 494.154 311.364C493.632 311.96 492.956 312.426 492.126 312.761C491.302 313.091 490.351 313.256 489.271 313.256ZM503.602 313V299.909H507.233V313H503.602ZM505.426 298.222C504.886 298.222 504.423 298.043 504.037 297.685C503.656 297.321 503.465 296.886 503.465 296.381C503.465 295.881 503.656 295.452 504.037 295.094C504.423 294.73 504.886 294.548 505.426 294.548C505.965 294.548 506.426 294.73 506.806 295.094C507.193 295.452 507.386 295.881 507.386 296.381C507.386 296.886 507.193 297.321 506.806 297.685C506.426 298.043 505.965 298.222 505.426 298.222ZM513.971 305.432V313H510.34V299.909H513.8V302.219H513.954C514.243 301.457 514.729 300.855 515.411 300.412C516.093 299.963 516.92 299.739 517.891 299.739C518.8 299.739 519.593 299.938 520.269 300.335C520.945 300.733 521.471 301.301 521.846 302.04C522.221 302.773 522.408 303.648 522.408 304.665V313H518.778V305.312C518.783 304.511 518.579 303.886 518.164 303.438C517.749 302.983 517.178 302.756 516.451 302.756C515.962 302.756 515.53 302.861 515.155 303.071C514.786 303.281 514.496 303.588 514.286 303.991C514.082 304.389 513.976 304.869 513.971 305.432ZM534.981 295.545V313H531.291V295.545H534.981ZM541.779 305.432V313H538.149V299.909H541.609V302.219H541.762C542.052 301.457 542.538 300.855 543.22 300.412C543.901 299.963 544.728 299.739 545.7 299.739C546.609 299.739 547.401 299.938 548.078 300.335C548.754 300.733 549.279 301.301 549.654 302.04C550.029 302.773 550.217 303.648 550.217 304.665V313H546.586V305.312C546.592 304.511 546.387 303.886 545.972 303.438C545.558 302.983 544.987 302.756 544.259 302.756C543.771 302.756 543.339 302.861 542.964 303.071C542.595 303.281 542.305 303.588 542.095 303.991C541.89 304.389 541.785 304.869 541.779 305.432ZM558.101 313.213C557.107 313.213 556.206 312.957 555.4 312.446C554.598 311.929 553.962 311.17 553.49 310.17C553.025 309.165 552.792 307.932 552.792 306.472C552.792 304.972 553.033 303.724 553.516 302.73C553.999 301.73 554.641 300.983 555.442 300.489C556.249 299.989 557.132 299.739 558.093 299.739C558.826 299.739 559.436 299.864 559.925 300.114C560.419 300.358 560.817 300.665 561.118 301.034C561.425 301.398 561.658 301.756 561.817 302.108H561.928V295.545H565.55V313H561.971V310.903H561.817C561.647 311.267 561.405 311.628 561.093 311.986C560.786 312.338 560.385 312.631 559.891 312.864C559.402 313.097 558.806 313.213 558.101 313.213ZM559.252 310.324C559.837 310.324 560.331 310.165 560.735 309.847C561.144 309.523 561.456 309.071 561.672 308.491C561.894 307.912 562.005 307.233 562.005 306.455C562.005 305.676 561.897 305 561.681 304.426C561.465 303.852 561.152 303.409 560.743 303.097C560.334 302.784 559.837 302.628 559.252 302.628C558.655 302.628 558.152 302.79 557.743 303.114C557.334 303.437 557.025 303.886 556.814 304.46C556.604 305.034 556.499 305.699 556.499 306.455C556.499 307.216 556.604 307.889 556.814 308.474C557.03 309.054 557.34 309.509 557.743 309.838C558.152 310.162 558.655 310.324 559.252 310.324ZM568.734 313V299.909H572.365V313H568.734ZM570.558 298.222C570.018 298.222 569.555 298.043 569.169 297.685C568.788 297.321 568.598 296.886 568.598 296.381C568.598 295.881 568.788 295.452 569.169 295.094C569.555 294.73 570.018 294.548 570.558 294.548C571.098 294.548 571.558 294.73 571.939 295.094C572.325 295.452 572.518 295.881 572.518 296.381C572.518 296.886 572.325 297.321 571.939 297.685C571.558 298.043 571.098 298.222 570.558 298.222ZM579.206 313.247C578.37 313.247 577.626 313.102 576.973 312.812C576.319 312.517 575.802 312.082 575.421 311.509C575.046 310.929 574.859 310.207 574.859 309.344C574.859 308.616 574.992 308.006 575.26 307.511C575.527 307.017 575.89 306.619 576.35 306.318C576.811 306.017 577.333 305.79 577.919 305.636C578.51 305.483 579.129 305.375 579.777 305.312C580.538 305.233 581.152 305.159 581.617 305.091C582.083 305.017 582.421 304.909 582.632 304.767C582.842 304.625 582.947 304.415 582.947 304.136V304.085C582.947 303.545 582.777 303.128 582.436 302.832C582.1 302.537 581.623 302.389 581.004 302.389C580.35 302.389 579.831 302.534 579.444 302.824C579.058 303.108 578.802 303.466 578.677 303.898L575.319 303.625C575.49 302.83 575.825 302.142 576.325 301.562C576.825 300.977 577.47 300.528 578.26 300.216C579.055 299.898 579.975 299.739 581.021 299.739C581.748 299.739 582.444 299.824 583.109 299.994C583.779 300.165 584.373 300.429 584.89 300.787C585.413 301.145 585.825 301.605 586.126 302.168C586.427 302.724 586.578 303.392 586.578 304.17V313H583.135V311.185H583.032C582.822 311.594 582.541 311.955 582.189 312.267C581.836 312.574 581.413 312.815 580.919 312.991C580.424 313.162 579.853 313.247 579.206 313.247ZM580.245 310.741C580.779 310.741 581.251 310.636 581.66 310.426C582.069 310.21 582.39 309.92 582.623 309.557C582.856 309.193 582.973 308.781 582.973 308.321V306.932C582.859 307.006 582.703 307.074 582.504 307.136C582.311 307.193 582.092 307.247 581.848 307.298C581.603 307.344 581.359 307.386 581.115 307.426C580.87 307.46 580.649 307.491 580.45 307.52C580.024 307.582 579.652 307.682 579.333 307.818C579.015 307.955 578.768 308.139 578.592 308.372C578.416 308.599 578.328 308.884 578.328 309.224C578.328 309.719 578.507 310.097 578.865 310.358C579.228 310.614 579.689 310.741 580.245 310.741Z" fill="#FFE978"/>
</g>
<defs>
<clipPath id="clip0_544_4581">
<rect width="620" height="350" rx="12" fill="white"/>
</clipPath>
</defs>
</svg>
