<?xml version="1.0" encoding="UTF-8"?>
<svg width="64px" height="53px" viewBox="0 0 64 53" version="1.1" xmlns="http://www.w3.org/2000/svg" xmlns:xlink="http://www.w3.org/1999/xlink">
    <title>vectorLogo</title>
    <g id="New-design" stroke="none" stroke-width="1" fill="none" fill-rule="evenodd" fill-opacity="0.899568571">
        <g id="iPhone-11-Pro-dark" transform="translate(-20.000000, -37.000000)" fill="#FFFFFF">
            <g id="Logo" transform="translate(20.000000, 37.000000)">
                <path d="M10.1914239,31.2154241 C10.1914239,31.2154241 10.1914239,31.2154241 10.1914239,31.2154241 C3.27043432,26.7296138 1.72318192,18.007222 5.89428934,10.782652 C10.0814628,3.53025484 18.1009781,0.32926559 25.4610998,4.14390137 C25.4610998,4.14390137 25.4610998,4.14390137 25.4610998,4.14390137 C26.2889695,4.5729733 26.6122591,5.59192586 26.1831871,6.41979562 C26.1777524,6.43028167 26.1722077,6.4407104 26.1665541,6.4510801 C26.1367401,6.505692 26.117195,6.54125415 26.1078886,6.55775001 C19.8780425,17.6002695 15.774472,24.784478 12.4632814,30.6066817 C12.4501307,30.6298052 12.4309722,30.6622721 12.405806,30.7040826 L12.4057773,30.7040653 C11.9555071,31.4521316 10.9840633,31.6935431 10.235997,31.2432729 C10.220986,31.2342376 10.2061262,31.2249534 10.1914239,31.2154241 Z" id="Path" transform="translate(15.287873, 17.294188) rotate(-345.000000) translate(-15.287873, -17.294188) "></path>
                <path d="M42.7863199,48.9584946 C42.7863199,48.9584946 42.7863199,48.9584946 42.7863199,48.9584946 C36.8694984,45.1193125 35.5467373,37.6542507 39.1126577,31.4711003 C42.6923131,25.2641339 49.5482749,22.5245662 55.8405148,25.7893235 C55.8405148,25.7893235 55.8405148,25.7893235 55.8405148,25.7893235 C56.5488941,26.1568693 56.8251943,27.029079 56.4576484,27.7374584 C56.4532012,27.7460297 56.4486681,27.7545563 56.4440499,27.7630367 C56.4183326,27.8102869 56.401466,27.8410116 56.3934608,27.8552166 C51.0675047,37.3059603 47.5593222,43.4545674 44.7285531,48.4375023 C44.7172412,48.4574143 44.7007298,48.4854217 44.6790189,48.5215245 L44.679006,48.5215168 C44.2945745,49.1607836 43.4647031,49.3673683 42.8254363,48.9829368 C42.8122593,48.9750127 42.7992186,48.9668641 42.7863199,48.9584946 Z" id="Path-Copy-3" transform="translate(47.143324, 37.044000) rotate(-120.000000) translate(-47.143324, -37.044000) "></path>
                <path d="M10.1240133,46.9425225 C10.1240133,46.9425225 10.1240133,46.9425225 10.1240133,46.9425225 C3.20302374,42.4567123 1.65577134,33.7343204 5.82687876,26.5097505 C10.0140522,19.2573533 18.0335675,16.0563641 25.3936892,19.8709998 C25.3936892,19.8709998 25.3936892,19.8709998 25.3936892,19.8709998 C26.221559,20.3000718 26.5448485,21.3190243 26.1157766,22.1468941 C26.1103418,22.1573801 26.1047972,22.1678089 26.0991436,22.1781786 C26.0693295,22.2327905 26.0497845,22.2683526 26.040478,22.2848485 C19.8106319,33.327368 15.7070614,40.5115764 12.3958708,46.3337802 C12.3827201,46.3569036 12.3635616,46.3893706 12.3383954,46.431181 L12.3383667,46.4311637 C11.8880965,47.1792301 10.9166528,47.4206416 10.1685864,46.9703714 C10.1535754,46.961336 10.1387157,46.9520518 10.1240133,46.9425225 Z" id="Path-Copy-2" transform="translate(15.220462, 33.021286) rotate(-165.000000) translate(-15.220462, -33.021286) "></path>
                <circle id="Oval" cx="45.9673238" cy="17.346" r="13.818"></circle>
                <circle id="Oval" cx="59.6383238" cy="3.675" r="3.381"></circle>
            </g>
        </g>
    </g>
</svg>