<?xml version="1.0" encoding="UTF-8"?>
<svg width="119px" height="90px" viewBox="0 0 119 90" version="1.1" xmlns="http://www.w3.org/2000/svg" xmlns:xlink="http://www.w3.org/1999/xlink">
    <title>Shreyas Gupta Logo</title>
    <g id="New-design" stroke="none" stroke-width="1" fill="none" fill-rule="evenodd">
        <g id="Home-Screen" transform="translate(-87.000000, -108.000000)" fill="#000000">
            <g id="Logo" transform="translate(85.000000, 108.000000)">
                <path d="M19.4122359,59.4579506 C19.4122359,59.4579506 19.4122359,59.4579506 19.4122359,59.4579506 C6.2293987,50.9135502 3.28225128,34.2994704 11.2272178,20.5383847 C19.2027863,6.72429493 34.4780535,0.627172552 48.4973329,7.89314546 C48.4973329,7.89314546 48.4973329,7.89314546 48.4973329,7.89314546 C50.0742099,8.71041609 50.6899925,10.6512562 49.8727219,12.2281332 C49.8623703,12.2481059 49.8518095,12.2679695 49.8410411,12.2877207 C49.7842748,12.3917799 49.74704,12.4595284 49.7293116,12.4909524 C37.8629381,33.5243229 30.0466133,47.2085294 23.7395836,58.2984413 C23.7145382,58.3424797 23.6780528,58.4043101 23.6301273,58.4839325 L23.6301028,58.4839178 C22.7724383,59.9088239 20.9220492,60.3686641 19.4971431,59.5109996 C19.4685487,59.4937883 19.4402424,59.4761029 19.4122359,59.4579506 Z" id="Path" transform="translate(29.119758, 32.941310) rotate(-345.000000) translate(-29.119758, -32.941310) "></path>
                <path d="M81.4977522,93.2542755 C81.4977522,93.2542755 81.4977522,93.2542755 81.4977522,93.2542755 C70.227616,85.9415477 67.708071,71.7223823 74.5003003,59.9449529 C81.3186916,48.1221598 94.3776665,42.9039357 106.362885,49.1225209 C106.362885,49.1225209 106.362885,49.1225209 106.362885,49.1225209 C107.712195,49.8226161 108.238487,51.4839867 107.538391,52.833296 C107.52992,52.8496229 107.521285,52.8658644 107.512488,52.8820182 C107.463484,52.9719873 107.431362,53.0305011 107.416116,53.0575554 C97.2714374,71.0589721 90.5891851,82.7706045 85.1972439,92.2619091 C85.1757005,92.2998314 85.1442561,92.3531692 85.1029107,92.4219223 L85.102912,92.4219231 C84.3706556,93.6395893 82.7899309,94.0330916 81.5722647,93.3008351 C81.547164,93.2857405 81.5223228,93.2702184 81.4977522,93.2542755 Z" id="Path-Copy-3" transform="translate(89.796807, 70.560000) rotate(-120.000000) translate(-89.796807, -70.560000) "></path>
                <path d="M19.2838348,89.4143287 C19.2838348,89.4143287 19.2838348,89.4143287 19.2838348,89.4143287 C6.10099759,80.8699282 3.15385018,64.2558484 11.0988167,50.4947628 C19.0743852,36.680673 34.3496524,30.5835506 48.3689318,37.8495235 C48.3689318,37.8495235 48.3689318,37.8495235 48.3689318,37.8495235 C49.9458088,38.6667941 50.5615914,40.6076342 49.7443208,42.1845112 C49.7339692,42.204484 49.7234084,42.2243476 49.71264,42.2440987 C49.6558737,42.3481579 49.6186389,42.4159064 49.6009105,42.4473304 C37.734537,63.4807009 29.9182122,77.1649075 23.6111825,88.2548193 C23.5861371,88.2988577 23.5496516,88.3606881 23.5017262,88.4403106 L23.5017017,88.4402958 C22.6440372,89.8652019 20.7936481,90.3250421 19.368742,89.4673776 C19.3401476,89.4501664 19.3118413,89.4324809 19.2838348,89.4143287 Z" id="Path-Copy-2" transform="translate(28.991357, 62.897688) rotate(-165.000000) translate(-28.991357, -62.897688) "></path>
                <circle id="Oval" cx="87.5568072" cy="33.04" r="26.32"></circle>
                <circle id="Oval" cx="113.596807" cy="7" r="6.44"></circle>
            </g>
        </g>
    </g>
</svg>