<?xml version="1.0" encoding="UTF-8"?>
<svg width="253px" height="209px" viewBox="0 0 253 209" version="1.1" xmlns="http://www.w3.org/2000/svg" xmlns:xlink="http://www.w3.org/1999/xlink">
    <title>vectorLogo</title>
    <g id="New-design" stroke="none" stroke-width="1" fill="none" fill-rule="evenodd" fill-opacity="0.899568571">
        <g id="Home-Screen-Copy" transform="translate(-594.000000, -173.000000)" fill="#000000">
            <g id="Logo" transform="translate(594.000000, 173.000000)">
                <path d="M40.7656954,124.861696 C40.7656954,124.861696 40.7656954,124.861696 40.7656954,124.861696 C13.0817373,106.918455 6.89272768,72.0288878 23.5771573,43.130608 C40.3258511,14.1210194 72.4039123,1.31706236 101.844399,16.5756055 C101.844399,16.5756055 101.844399,16.5756055 101.844399,16.5756055 C105.155822,18.2918641 106.448958,22.3676053 104.7327,25.6790283 C104.710962,25.7209703 104.688784,25.7626832 104.666171,25.8041599 C104.546985,26.0227226 104.468786,26.1650061 104.431554,26.231 C79.5121701,70.401078 63.0978878,99.1379118 49.8531256,122.426727 C49.800534,122.519201 49.7239218,122.649033 49.6232889,122.816222 L49.6232693,122.816211 C47.8221665,125.808532 43.9363283,126.774206 40.9440067,124.973103 C40.8839564,124.936958 40.8245111,124.899817 40.7656954,124.861696 Z" id="Path" transform="translate(61.151491, 69.176750) rotate(-345.000000) translate(-61.151491, -69.176750) "></path>
                <path d="M171.14528,195.833979 C171.14528,195.833979 171.14528,195.833979 171.14528,195.833979 C147.477994,180.47725 142.186949,150.617003 156.450631,125.884401 C170.769252,101.056536 198.1931,90.098265 223.362059,103.157294 C223.362059,103.157294 223.362059,103.157294 223.362059,103.157294 C226.195593,104.627486 227.300799,108.116344 225.830608,110.949878 C225.812818,110.984163 225.794686,111.01827 225.776213,111.052193 C225.673323,111.24116 225.605862,111.364049 225.573843,111.420866 C204.270019,149.223841 190.237289,173.81827 178.914212,193.750009 C178.868968,193.829652 178.802928,193.941671 178.716094,194.086067 L178.71607,194.086053 C177.178337,196.643136 173.858834,197.469483 171.301751,195.931751 C171.249041,195.900053 171.196876,195.867457 171.14528,195.833979 Z" id="Path-Copy-3" transform="translate(188.573295, 148.176000) rotate(-120.000000) translate(-188.573295, -148.176000) "></path>
                <path d="M40.4960531,187.77009 C40.4960531,187.77009 40.4960531,187.77009 40.4960531,187.77009 C12.8120949,169.826849 6.62308537,134.937282 23.307515,106.039002 C40.0562088,77.0294132 72.13427,64.2254562 101.574757,79.4839993 C101.574757,79.4839993 101.574757,79.4839993 101.574757,79.4839993 C104.88618,81.200258 106.179316,85.2759992 104.463057,88.5874221 C104.441319,88.6293642 104.419142,88.6710771 104.396529,88.7125538 C104.277343,88.9311165 104.199144,89.0734 104.161912,89.1393939 C79.2425278,133.309472 62.8282455,162.046306 49.5834833,185.335121 C49.5308917,185.427595 49.4542794,185.557426 49.3536466,185.724616 L49.353627,185.724604 C47.5525242,188.716926 43.666686,189.6826 40.6743644,187.881497 C40.6143141,187.845352 40.5548687,187.808211 40.4960531,187.77009 Z" id="Path-Copy-2" transform="translate(60.881849, 132.085144) rotate(-165.000000) translate(-60.881849, -132.085144) "></path>
                <circle id="Oval" cx="183.869295" cy="69.384" r="55.272"></circle>
                <circle id="Oval" cx="238.553295" cy="14.7" r="13.524"></circle>
            </g>
        </g>
    </g>
</svg>