<?xml version="1.0" encoding="UTF-8"?>
<svg viewBox="0 0 239 40" version="1.1" xmlns="http://www.w3.org/2000/svg" xmlns:xlink="http://www.w3.org/1999/xlink">
    <g id="New-design" stroke="none" stroke-width="1" fill="none" fill-rule="evenodd">
        <g id="Post-Screen" transform="translate(-86.000000, -264.000000)" fill="#595959" fill-rule="nonzero">
            <g id="Group-3" transform="translate(86.310547, 264.500000)">
                <path d="M43.6254531,29.196 C45.0067865,29.196 46.2527865,28.9253333 47.3634531,28.384 C48.4741198,27.8426667 49.3561198,27.0166667 50.0094531,25.906 C50.6627865,24.7953333 50.9894531,23.428 50.9894531,21.804 L50.9894531,21.804 L50.9894531,9.484 L48.4414531,9.484 L48.4414531,21.832 C48.4414531,23.568 48.0167865,24.856 47.1674531,25.696 C46.3181198,26.536 45.1467865,26.956 43.6534531,26.956 C42.1414531,26.956 40.9607865,26.536 40.1114531,25.696 C39.2621198,24.856 38.8374531,23.568 38.8374531,21.832 L38.8374531,21.832 L38.8374531,9.484 L36.2894531,9.484 L36.2894531,21.804 C36.2894531,23.428 36.6114531,24.7953333 37.2554531,25.906 C37.8994531,27.0166667 38.7767865,27.8426667 39.8874531,28.384 C40.9981198,28.9253333 42.2441198,29.196 43.6254531,29.196 Z M57.1289531,29 L61.5809531,21.384 L66.2569531,29 L69.1409531,29 L63.1489531,19.256 L69.1689531,9.484 L66.3129531,9.484 L61.8329531,17.128 L57.1289531,9.484 L54.2729531,9.484 L60.2649531,19.256 L54.3009531,29 L57.1289531,29 Z M88.6719531,29.168 C90.7999531,29.168 92.6572865,28.6593333 94.2439531,27.642 C95.8306198,26.6246667 96.9879531,25.1826667 97.7159531,23.316 L97.7159531,23.316 L94.6639531,23.316 C94.1226198,24.492 93.3432865,25.3926667 92.3259531,26.018 C91.3086198,26.6433333 90.0906198,26.956 88.6719531,26.956 C87.3092865,26.956 86.0866198,26.6386667 85.0039531,26.004 C83.9212865,25.3693333 83.0719531,24.4686667 82.4559531,23.302 C81.8399531,22.1353333 81.5319531,20.7773333 81.5319531,19.228 C81.5319531,17.66 81.8399531,16.2926667 82.4559531,15.126 C83.0719531,13.9593333 83.9212865,13.0586667 85.0039531,12.424 C86.0866198,11.7893333 87.3092865,11.472 88.6719531,11.472 C90.0906198,11.472 91.3086198,11.7893333 92.3259531,12.424 C93.3432865,13.0586667 94.1226198,13.964 94.6639531,15.14 L94.6639531,15.14 L97.7159531,15.14 C96.9879531,13.2546667 95.8306198,11.7986667 94.2439531,10.772 C92.6572865,9.74533333 90.7999531,9.232 88.6719531,9.232 C86.8612865,9.232 85.2139531,9.66133333 83.7299531,10.52 C82.2459531,11.3786667 81.0746198,12.5686667 80.2159531,14.09 C79.3572865,15.6113333 78.9279531,17.324 78.9279531,19.228 C78.9279531,21.132 79.3572865,22.84 80.2159531,24.352 C81.0746198,25.864 82.2459531,27.0446667 83.7299531,27.894 C85.2139531,28.7433333 86.8612865,29.168 88.6719531,29.168 Z M107.719453,29.252 C109.044786,29.252 110.206786,28.958 111.205453,28.37 C112.20412,27.782 112.955453,27.04 113.459453,26.144 L113.459453,26.144 L113.459453,29 L116.035453,29 L116.035453,13.656 L113.459453,13.656 L113.459453,16.456 C112.97412,15.5786667 112.236786,14.8506667 111.247453,14.272 C110.25812,13.6933333 109.091453,13.404 107.747453,13.404 C106.384786,13.404 105.14812,13.7306667 104.037453,14.384 C102.926786,15.0373333 102.05412,15.9566667 101.419453,17.142 C100.784786,18.3273333 100.467453,19.704 100.467453,21.272 C100.467453,22.8213333 100.784786,24.2026667 101.419453,25.416 C102.05412,26.6293333 102.92212,27.572 104.023453,28.244 C105.124786,28.916 106.356786,29.252 107.719453,29.252 Z M108.251453,27.012 C107.299453,27.012 106.431453,26.7833333 105.647453,26.326 C104.863453,25.8686667 104.23812,25.206 103.771453,24.338 C103.304786,23.47 103.071453,22.448 103.071453,21.272 C103.071453,20.1146667 103.304786,19.1066667 103.771453,18.248 C104.23812,17.3893333 104.863453,16.736 105.647453,16.288 C106.431453,15.84 107.299453,15.616 108.251453,15.616 C109.203453,15.616 110.07612,15.8446667 110.869453,16.302 C111.662786,16.7593333 112.292786,17.4173333 112.759453,18.276 C113.22612,19.1346667 113.459453,20.1426667 113.459453,21.3 C113.459453,22.4573333 113.22612,23.47 112.759453,24.338 C112.292786,25.206 111.662786,25.8686667 110.869453,26.326 C110.07612,26.7833333 109.203453,27.012 108.251453,27.012 Z M125.702953,29.252 C126.804286,29.252 127.77962,29.0606667 128.628953,28.678 C129.478286,28.2953333 130.136286,27.768 130.602953,27.096 C131.06962,26.424 131.302953,25.668 131.302953,24.828 C131.284286,23.8946667 131.02762,23.1386667 130.532953,22.56 C130.038286,21.9813333 129.44562,21.5473333 128.754953,21.258 C128.064286,20.9686667 127.168286,20.6746667 126.066953,20.376 C125.18962,20.1333333 124.50362,19.914 124.008953,19.718 C123.514286,19.522 123.10362,19.2606667 122.776953,18.934 C122.450286,18.6073333 122.286953,18.192 122.286953,17.688 C122.286953,17.0533333 122.55762,16.54 123.098953,16.148 C123.640286,15.756 124.368286,15.56 125.282953,15.56 C126.272286,15.56 127.060953,15.8026667 127.648953,16.288 C128.236953,16.7733333 128.558953,17.4173333 128.614953,18.22 L128.614953,18.22 L131.162953,18.22 C131.088286,16.7266667 130.528286,15.5506667 129.482953,14.692 C128.43762,13.8333333 127.06562,13.404 125.366953,13.404 C124.26562,13.404 123.28562,13.5953333 122.426953,13.978 C121.568286,14.3606667 120.90562,14.8786667 120.438953,15.532 C119.972286,16.1853333 119.738953,16.904 119.738953,17.688 C119.738953,18.6773333 119.99562,19.4753333 120.508953,20.082 C121.022286,20.6886667 121.638286,21.146 122.356953,21.454 C123.07562,21.762 124.004286,22.0653333 125.142953,22.364 C126.39362,22.6813333 127.31762,23.0033333 127.914953,23.33 C128.512286,23.6566667 128.810953,24.156 128.810953,24.828 C128.810953,25.4813333 128.530953,26.0226667 127.970953,26.452 C127.410953,26.8813333 126.64562,27.096 125.674953,27.096 C124.62962,27.096 123.784953,26.8533333 123.140953,26.368 C122.496953,25.8826667 122.13762,25.2573333 122.062953,24.492 L122.062953,24.492 L119.430953,24.492 C119.486953,25.4253333 119.78562,26.2513333 120.326953,26.97 C120.868286,27.6886667 121.60562,28.2486667 122.538953,28.65 C123.472286,29.0513333 124.526953,29.252 125.702953,29.252 Z M141.446453,29.252 C143.275786,29.252 144.806453,28.79 146.038453,27.866 C147.270453,26.942 148.091786,25.7426667 148.502453,24.268 L148.502453,24.268 L145.758453,24.268 C145.459786,25.1266667 144.941786,25.8126667 144.204453,26.326 C143.46712,26.8393333 142.547786,27.096 141.446453,27.096 C140.102453,27.096 138.95912,26.6713333 138.016453,25.822 C137.073786,24.9726667 136.555786,23.792 136.462453,22.28 L136.462453,22.28 L148.726453,22.28 C148.782453,21.7386667 148.810453,21.2253333 148.810453,20.74 C148.810453,19.34 148.50712,18.0846667 147.900453,16.974 C147.293786,15.8633333 146.430453,14.9906667 145.310453,14.356 C144.190453,13.7213333 142.902453,13.404 141.446453,13.404 C139.95312,13.404 138.632453,13.726 137.484453,14.37 C136.336453,15.014 135.44512,15.9333333 134.810453,17.128 C134.175786,18.3226667 133.858453,19.7133333 133.858453,21.3 C133.858453,22.8866667 134.18512,24.282 134.838453,25.486 C135.491786,26.69 136.392453,27.6186667 137.540453,28.272 C138.688453,28.9253333 139.990453,29.252 141.446453,29.252 Z M146.178453,20.208 L136.490453,20.208 C136.62112,18.752 137.13912,17.6133333 138.044453,16.792 C138.949786,15.9706667 140.046453,15.56 141.334453,15.56 C142.230453,15.56 143.04712,15.742 143.784453,16.106 C144.521786,16.47 145.10512,17.002 145.534453,17.702 C145.963786,18.402 146.178453,19.2373333 146.178453,20.208 L146.178453,20.208 Z M165.681453,29.196 C167.025453,29.196 168.19212,28.9346667 169.181453,28.412 C170.170786,27.8893333 170.917453,27.208 171.421453,26.368 C171.925453,25.528 172.177453,24.632 172.177453,23.68 C172.177453,22.448 171.897453,21.4726667 171.337453,20.754 C170.777453,20.0353333 170.105453,19.5033333 169.321453,19.158 C168.537453,18.8126667 167.501453,18.4626667 166.213453,18.108 C165.149453,17.8093333 164.323453,17.5433333 163.735453,17.31 C163.147453,17.0766667 162.652786,16.736 162.251453,16.288 C161.85012,15.84 161.649453,15.2613333 161.649453,14.552 C161.649453,13.5626667 161.985453,12.7926667 162.657453,12.242 C163.329453,11.6913333 164.197453,11.416 165.261453,11.416 C166.40012,11.416 167.314786,11.7006667 168.005453,12.27 C168.69612,12.8393333 169.08812,13.4973333 169.181453,14.244 L169.181453,14.244 L171.981453,14.244 C171.83212,12.732 171.17412,11.5186667 170.007453,10.604 C168.840786,9.68933333 167.342786,9.232 165.513453,9.232 C164.24412,9.232 163.119453,9.456 162.139453,9.904 C161.159453,10.352 160.398786,10.9866667 159.857453,11.808 C159.31612,12.6293333 159.045453,13.572 159.045453,14.636 C159.045453,15.8493333 159.320786,16.8153333 159.871453,17.534 C160.42212,18.2526667 161.084786,18.78 161.859453,19.116 C162.63412,19.452 163.665453,19.788 164.953453,20.124 C165.998786,20.404 166.829453,20.6653333 167.445453,20.908 C168.061453,21.1506667 168.574786,21.5053333 168.985453,21.972 C169.39612,22.4386667 169.601453,23.0453333 169.601453,23.792 C169.601453,24.744 169.251453,25.5233333 168.551453,26.13 C167.851453,26.7366667 166.894786,27.04 165.681453,27.04 C164.41212,27.04 163.44612,26.7273333 162.783453,26.102 C162.120786,25.4766667 161.742786,24.7066667 161.649453,23.792 L161.649453,23.792 L158.933453,23.792 C158.95212,24.856 159.250786,25.794 159.829453,26.606 C160.40812,27.418 161.20612,28.0526667 162.223453,28.51 C163.240786,28.9673333 164.393453,29.196 165.681453,29.196 Z M182.964953,29 L182.964953,26.844 L181.088953,26.844 C180.304953,26.844 179.754286,26.69 179.436953,26.382 C179.11962,26.074 178.960953,25.5466667 178.960953,24.8 L178.960953,24.8 L178.960953,15.756 L182.964953,15.756 L182.964953,13.656 L178.960953,13.656 L178.960953,9.792 L176.412953,9.792 L176.412953,13.656 L174.424953,13.656 L174.424953,15.756 L176.412953,15.756 L176.412953,24.8 C176.412953,26.2933333 176.76762,27.3666667 177.476953,28.02 C178.186286,28.6733333 179.250286,29 180.668953,29 L180.668953,29 L182.964953,29 Z M192.128453,29.224 C193.173786,29.224 194.130453,29.0046667 194.998453,28.566 C195.866453,28.1273333 196.54312,27.516 197.028453,26.732 L197.028453,26.732 L197.028453,29 L199.576453,29 L199.576453,13.656 L197.028453,13.656 L197.028453,22.084 C197.028453,23.6893333 196.636453,24.912 195.852453,25.752 C195.068453,26.592 193.99512,27.012 192.632453,27.012 C191.30712,27.012 190.261786,26.606 189.496453,25.794 C188.73112,24.982 188.348453,23.82 188.348453,22.308 L188.348453,22.308 L188.348453,13.656 L185.828453,13.656 L185.828453,22.644 C185.828453,24.0626667 186.103786,25.2666667 186.654453,26.256 C187.20512,27.2453333 187.956453,27.9873333 188.908453,28.482 C189.860453,28.9766667 190.933786,29.224 192.128453,29.224 Z M210.139953,29.252 C211.465286,29.252 212.62262,28.958 213.611953,28.37 C214.601286,27.782 215.347953,27.0306667 215.851953,26.116 L215.851953,26.116 L215.851953,29 L218.427953,29 L218.427953,8.28 L215.851953,8.28 L215.851953,16.4 C215.31062,15.504 214.52662,14.7806667 213.499953,14.23 C212.473286,13.6793333 211.36262,13.404 210.167953,13.404 C208.78662,13.404 207.54062,13.7306667 206.429953,14.384 C205.319286,15.0373333 204.44662,15.9566667 203.811953,17.142 C203.177286,18.3273333 202.859953,19.704 202.859953,21.272 C202.859953,22.8213333 203.177286,24.2026667 203.811953,25.416 C204.44662,26.6293333 205.319286,27.572 206.429953,28.244 C207.54062,28.916 208.777286,29.252 210.139953,29.252 Z M210.643953,27.012 C209.691953,27.012 208.823953,26.7833333 208.039953,26.326 C207.255953,25.8686667 206.63062,25.206 206.163953,24.338 C205.697286,23.47 205.463953,22.448 205.463953,21.272 C205.463953,20.1146667 205.697286,19.1066667 206.163953,18.248 C206.63062,17.3893333 207.255953,16.736 208.039953,16.288 C208.823953,15.84 209.691953,15.616 210.643953,15.616 C211.595953,15.616 212.46862,15.8446667 213.261953,16.302 C214.055286,16.7593333 214.685286,17.4173333 215.151953,18.276 C215.61862,19.1346667 215.851953,20.1426667 215.851953,21.3 C215.851953,22.4573333 215.61862,23.47 215.151953,24.338 C214.685286,25.206 214.055286,25.8686667 213.261953,26.326 C212.46862,26.7833333 211.595953,27.012 210.643953,27.012 Z M226.639453,36.224 L235.879453,13.656 L233.247453,13.656 L228.487453,26.088 L223.671453,13.656 L220.843453,13.656 L227.031453,28.832 L224.007453,36.224 L226.639453,36.224 Z" id="UXCaseStudy"></path>
                <path d="M13.2890625,32.9511719 C15.1119792,32.9511719 16.8255208,32.6025391 18.4296875,31.9052734 C20.0338542,31.2080078 21.4466146,30.2486979 22.6679688,29.0273438 C23.8893229,27.8059896 24.8463542,26.3955078 25.5390625,24.7958984 C26.2317708,23.1962891 26.578125,21.485026 26.578125,19.6621094 C26.578125,17.8391927 26.2317708,16.1279297 25.5390625,14.5283203 C24.8463542,12.9287109 23.8870443,11.5159505 22.6611328,10.2900391 C21.4352214,9.0641276 20.0201823,8.10481771 18.4160156,7.41210938 C16.811849,6.71940104 15.0983073,6.37304688 13.2753906,6.37304688 C11.4707031,6.37304688 9.76627604,6.71940104 8.16210938,7.41210938 C6.55794271,8.10481771 5.14290365,9.0641276 3.91699219,10.2900391 C2.69108073,11.5159505 1.73177083,12.9287109 1.0390625,14.5283203 C0.346354167,16.1279297 0,17.8391927 0,19.6621094 C0,21.485026 0.348632812,23.1962891 1.04589844,24.7958984 C1.74316406,26.3955078 2.70247396,27.8059896 3.92382812,29.0273438 C5.14518229,30.2486979 6.55794271,31.2080078 8.16210938,31.9052734 C9.76627604,32.6025391 11.4752604,32.9511719 13.2890625,32.9511719 Z M13.2890625,30.5039062 C11.7942708,30.5039062 10.390625,30.2236328 9.078125,29.6630859 C7.765625,29.1025391 6.61490885,28.3277995 5.62597656,27.3388672 C4.63704427,26.3499349 3.86458333,25.1992188 3.30859375,23.8867188 C2.75260417,22.5742188 2.47460938,21.1660156 2.47460938,19.6621094 C2.47460938,18.1673177 2.75260417,16.7636719 3.30859375,15.4511719 C3.86458333,14.1386719 4.63704427,12.9856771 5.62597656,11.9921875 C6.61490885,10.9986979 7.76334635,10.2216797 9.07128906,9.66113281 C10.3792318,9.10058594 11.780599,8.8203125 13.2753906,8.8203125 C14.7884115,8.8203125 16.1988932,9.10058594 17.5068359,9.66113281 C18.8147786,10.2216797 19.9654948,10.9986979 20.9589844,11.9921875 C21.952474,12.9856771 22.7294922,14.1386719 23.2900391,15.4511719 C23.8505859,16.7636719 24.1308594,18.1673177 24.1308594,19.6621094 C24.139974,21.1660156 23.8619792,22.5742188 23.296875,23.8867188 C22.7317708,25.1992188 21.9570312,26.3499349 20.9726562,27.3388672 C19.9882812,28.3277995 18.8398438,29.1025391 17.5273438,29.6630859 C16.2148438,30.2236328 14.8020833,30.5039062 13.2890625,30.5039062 Z M17.0351562,26.5117188 C17.2721354,26.5117188 17.461263,26.4319661 17.6025391,26.2724609 C17.7438151,26.1129557 17.8144531,25.8964844 17.8144531,25.6230469 L17.8144531,14.8496094 C17.8144531,14.2115885 17.6526693,13.7285156 17.3291016,13.4003906 C17.0055339,13.0722656 16.5247396,12.9082031 15.8867188,12.9082031 L10.6777344,12.9082031 C10.0488281,12.9082031 9.57259115,13.0722656 9.24902344,13.4003906 C8.92545573,13.7285156 8.76367188,14.2115885 8.76367188,14.8496094 L8.76367188,25.6230469 C8.76367188,25.8964844 8.8343099,26.1129557 8.97558594,26.2724609 C9.11686198,26.4319661 9.30143229,26.5117188 9.52929688,26.5117188 C9.70247396,26.5117188 9.86197917,26.4547526 10.0078125,26.3408203 C10.1536458,26.226888 10.3632812,26.0332031 10.6367188,25.7597656 L13.234375,23.2167969 C13.2708333,23.171224 13.3072917,23.171224 13.34375,23.2167969 L15.9414062,25.7597656 C16.2148438,26.0332031 16.4244792,26.226888 16.5703125,26.3408203 C16.7161458,26.4547526 16.8710938,26.5117188 17.0351562,26.5117188 Z" id="bookmark"></path>
            </g>
        </g>
    </g>
</svg>