<?xml version="1.0" encoding="UTF-8"?>
<svg width="28px" height="28px" viewBox="0 0 28 28" version="1.1" xmlns="http://www.w3.org/2000/svg" xmlns:xlink="http://www.w3.org/1999/xlink">
    <title>vectorbookmark 2</title>
    <g id="New-design" stroke="none" stroke-width="1" fill="none" fill-rule="evenodd">
        <g id="Post-Screen" transform="translate(-86.000000, -270.000000)" fill="#595959" fill-rule="nonzero">
            <g id="bookmark-2" transform="translate(86.310547, 270.873047)">
                <path d="M13.2890625,26.578125 C15.1119792,26.578125 16.8255208,26.2294922 18.4296875,25.5322266 C20.0338542,24.8349609 21.4466146,23.875651 22.6679688,22.6542969 C23.8893229,21.4329427 24.8463542,20.0224609 25.5390625,18.4228516 C26.2317708,16.8232422 26.578125,15.1119792 26.578125,13.2890625 C26.578125,11.4661458 26.2317708,9.75488281 25.5390625,8.15527344 C24.8463542,6.55566406 23.8870443,5.14290365 22.6611328,3.91699219 C21.4352214,2.69108073 20.0201823,1.73177083 18.4160156,1.0390625 C16.811849,0.346354167 15.0983073,0 13.2753906,0 C11.4707031,0 9.76627604,0.346354167 8.16210938,1.0390625 C6.55794271,1.73177083 5.14290365,2.69108073 3.91699219,3.91699219 C2.69108073,5.14290365 1.73177083,6.55566406 1.0390625,8.15527344 C0.346354167,9.75488281 0,11.4661458 0,13.2890625 C0,15.1119792 0.348632812,16.8232422 1.04589844,18.4228516 C1.74316406,20.0224609 2.70247396,21.4329427 3.92382812,22.6542969 C5.14518229,23.875651 6.55794271,24.8349609 8.16210938,25.5322266 C9.76627604,26.2294922 11.4752604,26.578125 13.2890625,26.578125 Z M13.2890625,24.1308594 C11.7942708,24.1308594 10.390625,23.8505859 9.078125,23.2900391 C7.765625,22.7294922 6.61490885,21.9547526 5.62597656,20.9658203 C4.63704427,19.976888 3.86458333,18.8261719 3.30859375,17.5136719 C2.75260417,16.2011719 2.47460938,14.7929687 2.47460938,13.2890625 C2.47460938,11.7942708 2.75260417,10.390625 3.30859375,9.078125 C3.86458333,7.765625 4.63704427,6.61263021 5.62597656,5.61914062 C6.61490885,4.62565104 7.76334635,3.84863281 9.07128906,3.28808594 C10.3792318,2.72753906 11.780599,2.44726562 13.2753906,2.44726562 C14.7884115,2.44726562 16.1988932,2.72753906 17.5068359,3.28808594 C18.8147786,3.84863281 19.9654948,4.62565104 20.9589844,5.61914062 C21.952474,6.61263021 22.7294922,7.765625 23.2900391,9.078125 C23.8505859,10.390625 24.1308594,11.7942708 24.1308594,13.2890625 C24.139974,14.7929687 23.8619792,16.2011719 23.296875,17.5136719 C22.7317708,18.8261719 21.9570312,19.976888 20.9726562,20.9658203 C19.9882812,21.9547526 18.8398438,22.7294922 17.5273438,23.2900391 C16.2148438,23.8505859 14.8020833,24.1308594 13.2890625,24.1308594 Z M17.0351562,20.1386719 C17.2721354,20.1386719 17.461263,20.0589193 17.6025391,19.8994141 C17.7438151,19.7399089 17.8144531,19.5234375 17.8144531,19.25 L17.8144531,8.4765625 C17.8144531,7.83854167 17.6526693,7.35546875 17.3291016,7.02734375 C17.0055339,6.69921875 16.5247396,6.53515625 15.8867188,6.53515625 L10.6777344,6.53515625 C10.0488281,6.53515625 9.57259115,6.69921875 9.24902344,7.02734375 C8.92545573,7.35546875 8.76367188,7.83854167 8.76367188,8.4765625 L8.76367188,19.25 C8.76367188,19.5234375 8.8343099,19.7399089 8.97558594,19.8994141 C9.11686198,20.0589193 9.30143229,20.1386719 9.52929688,20.1386719 C9.70247396,20.1386719 9.86197917,20.0817057 10.0078125,19.9677734 C10.1536458,19.8538411 10.3632812,19.6601562 10.6367188,19.3867188 L13.234375,16.84375 C13.2708333,16.7981771 13.3072917,16.7981771 13.34375,16.84375 L15.9414062,19.3867188 C16.2148438,19.6601562 16.4244792,19.8538411 16.5703125,19.9677734 C16.7161458,20.0817057 16.8710938,20.1386719 17.0351562,20.1386719 Z" id="bookmark"></path>
            </g>
        </g>
    </g>
</svg>