<?xml version="1.0" encoding="UTF-8"?>
<svg width="200px" height="200px" viewBox="0 0 200 200" version="1.1" xmlns="http://www.w3.org/2000/svg" xmlns:xlink="http://www.w3.org/1999/xlink">
    <title>Group@3x</title>
    <g id="New-design" stroke="none" stroke-width="1" fill="none" fill-rule="evenodd">
        <g id="Artboard" transform="translate(-148.000000, -148.000000)">
            <g id="Group" transform="translate(148.000000, 148.000000)">
                <rect id="Rectangle" fill="#B7B7B7" x="0" y="0" width="200" height="200" rx="36"></rect>
                <g id="Group-2-Copy" transform="translate(14.000000, 36.000000)" fill="#424242">
                    <path d="M27.9544479,84.0905302 C27.9544479,84.0905302 27.9544479,84.0905302 27.9544479,84.0905302 C9.31014959,72.0063066 5.14204109,48.509251 16.3784937,29.0471441 C27.6582263,9.51007426 49.2618185,0.887001181 69.0890852,11.1631629 C69.0890852,11.1631629 69.0890852,11.1631629 69.0890852,11.1631629 C71.3192271,12.3190105 72.1901148,15.0638975 71.0342671,17.2940394 C71.0196273,17.3222862 71.0046915,17.3503785 70.9894621,17.3783118 C70.9091942,17.5255071 70.8565294,17.6213306 70.831455,17.6657755 C54.0490125,47.4129709 42.9944959,66.7663488 34.074554,82.4506527 C34.0391326,82.5129356 33.9875317,82.6003814 33.9197514,82.7129903 L33.9197168,82.7129694 C32.7067342,84.7281938 30.0897553,85.3785392 28.0745309,84.1655565 C28.0340903,84.1412149 27.9940571,84.1162027 27.9544479,84.0905302 Z" id="Path" transform="translate(41.683657, 46.588424) rotate(-345.000000) translate(-41.683657, -46.588424) "></path>
                    <path d="M115.761107,131.88819 C115.761107,131.88819 115.761107,131.88819 115.761107,131.88819 C99.8219141,121.545903 96.2585575,101.435941 105.86471,84.7792905 C115.507864,68.0584831 133.976986,60.6784233 150.927509,69.4732795 C150.927509,69.4732795 150.927509,69.4732795 150.927509,69.4732795 C152.835818,70.4634142 153.580145,72.813067 152.590011,74.7213758 C152.57803,74.7444667 152.565818,74.7674369 152.553376,74.7902829 C152.48407,74.9175249 152.438641,75.0002801 152.417078,75.0385426 C138.069604,100.497689 128.61899,117.061284 120.993245,130.4847 C120.962776,130.538333 120.918305,130.613768 120.859831,130.711004 L120.859833,130.711006 C119.824213,132.433133 117.588617,132.989658 115.866489,131.954038 C115.830989,131.93269 115.795857,131.910737 115.761107,131.88819 Z" id="Path-Copy-3" transform="translate(127.498342, 99.792000) rotate(-120.000000) translate(-127.498342, -99.792000) "></path>
                    <path d="M27.7728521,126.457408 C27.7728521,126.457408 27.7728521,126.457408 27.7728521,126.457408 C9.12855374,114.373184 4.96044525,90.8761285 16.1968979,71.4140216 C27.4766304,51.8769518 49.0802227,43.2538787 68.9074893,53.5300404 C68.9074893,53.5300404 68.9074893,53.5300404 68.9074893,53.5300404 C71.1376313,54.685888 72.0085189,57.430775 70.8526713,59.6609169 C70.8380314,59.6891637 70.8230956,59.717256 70.8078663,59.7451893 C70.7275984,59.8923846 70.6749336,59.9882081 70.6498591,60.032653 C53.8674167,89.7798484 42.8129001,109.133226 33.8929581,124.81753 C33.8575368,124.879813 33.8059359,124.967259 33.7381556,125.079868 L33.738121,125.079847 C32.5251383,127.095071 29.9081595,127.745417 27.8929351,126.532434 C27.8524944,126.508092 27.8124612,126.48308 27.7728521,126.457408 Z" id="Path-Copy-2" transform="translate(41.502062, 88.955301) rotate(-165.000000) translate(-41.502062, -88.955301) "></path>
                    <circle id="Oval" cx="124.330342" cy="46.728" r="37.224"></circle>
                    <circle id="Oval" cx="161.158342" cy="9.9" r="9.108"></circle>
                </g>
            </g>
        </g>
    </g>
</svg>