<?xml version="1.0" encoding="UTF-8"?>
<svg width="129px" height="34px" viewBox="0 0 129 34" version="1.1" xmlns="http://www.w3.org/2000/svg" xmlns:xlink="http://www.w3.org/1999/xlink">
    <title>vectorwritings</title>
    <g id="New-design" stroke="none" stroke-width="1" fill="none" fill-rule="evenodd">
        <g id="Post-Screen" transform="translate(-58.000000, -229.000000)" fill="#595959" fill-rule="nonzero">
            <g id="writings" transform="translate(58.294922, 229.216797)">
                <path d="M17.8828125,27.890625 C19.25,27.890625 20.2776693,27.5419922 20.9658203,26.8447266 C21.6539714,26.1474609 21.9980469,25.1106771 21.9980469,23.734375 L21.9980469,4.16992188 C21.9980469,2.79361979 21.6539714,1.75455729 20.9658203,1.05273438 C20.2776693,0.350911458 19.25,0 17.8828125,0 L4.11523438,0 C2.75716146,0 1.73177083,0.350911458 1.0390625,1.05273438 C0.346354167,1.75455729 0,2.79361979 0,4.16992188 L0,23.734375 C0,25.1106771 0.346354167,26.1474609 1.0390625,26.8447266 C1.73177083,27.5419922 2.75716146,27.890625 4.11523438,27.890625 L17.8828125,27.890625 Z M17.7050781,25.5390625 L4.29296875,25.5390625 C3.65494792,25.5390625 3.171875,25.375 2.84375,25.046875 C2.515625,24.71875 2.3515625,24.2447917 2.3515625,23.625 L2.3515625,4.27929688 C2.3515625,3.65950521 2.515625,3.18554688 2.84375,2.85742188 C3.171875,2.52929688 3.65494792,2.36523438 4.29296875,2.36523438 L17.7050781,2.36523438 C18.3613281,2.36523438 18.851237,2.52929688 19.1748047,2.85742188 C19.4983724,3.18554688 19.6601562,3.65950521 19.6601562,4.27929688 L19.6601562,23.625 C19.6601562,24.2447917 19.4983724,24.71875 19.1748047,25.046875 C18.851237,25.375 18.3613281,25.5390625 17.7050781,25.5390625 Z M14.3417969,13.1113281 C15.1074219,13.1113281 15.7340495,12.8697917 16.2216797,12.3867188 C16.7093099,11.9036458 16.953125,11.2792969 16.953125,10.5136719 C16.953125,9.76627604 16.7457682,9.16699219 16.3310547,8.71582031 C15.9163411,8.26464844 15.3671875,8.0390625 14.6835938,8.0390625 C14.3554688,8.0390625 14.0546875,8.09375 13.78125,8.203125 C13.5078125,8.3125 13.2753906,8.49479167 13.0839844,8.75 L12.8105469,8.75 C12.8652344,8.52213542 12.9609375,8.30338542 13.0976562,8.09375 C13.234375,7.88411458 13.4075521,7.68815104 13.6171875,7.50585938 C13.8177083,7.32356771 14.0432943,7.17545573 14.2939453,7.06152344 C14.5445964,6.94759115 14.8066406,6.85416667 15.0800781,6.78125 C15.3170573,6.73567708 15.4788411,6.671875 15.5654297,6.58984375 C15.6520182,6.5078125 15.6953125,6.3984375 15.6953125,6.26171875 C15.6953125,5.94270833 15.5130208,5.78320312 15.1484375,5.78320312 C14.7291667,5.78320312 14.2802734,5.90169271 13.8017578,6.13867188 C13.3232422,6.37565104 12.9108073,6.67643229 12.5644531,7.04101562 C12.2089844,7.43294271 11.9423828,7.87272135 11.7646484,8.36035156 C11.5869141,8.84798177 11.4980469,9.35611979 11.4980469,9.88476562 C11.4980469,10.905599 11.773763,11.6985677 12.3251953,12.2636719 C12.8766276,12.828776 13.5488281,13.1113281 14.3417969,13.1113281 Z M7.90234375,13.125 C8.66796875,13.125 9.29231771,12.8834635 9.77539062,12.4003906 C10.2584635,11.9173177 10.5,11.2884115 10.5,10.5136719 C10.5,9.77539062 10.2926432,9.18066406 9.87792969,8.72949219 C9.46321615,8.27832031 8.91861979,8.05273438 8.24414062,8.05273438 C7.90690104,8.05273438 7.60384115,8.10742188 7.33496094,8.21679688 C7.06608073,8.32617188 6.83138021,8.50390625 6.63085938,8.75 L6.37109375,8.75 C6.41666667,8.52213542 6.51009115,8.30110677 6.65136719,8.08691406 C6.79264323,7.87272135 6.97265625,7.67447917 7.19140625,7.4921875 C7.40104167,7.328125 7.62434896,7.18684896 7.86132812,7.06835938 C8.09830729,6.94986979 8.35807292,6.85872396 8.640625,6.79492188 C8.86848958,6.74934896 9.02799479,6.68554688 9.11914062,6.60351562 C9.21028646,6.52148438 9.25585938,6.41210938 9.25585938,6.27539062 C9.25585938,5.95638021 9.06901042,5.796875 8.6953125,5.796875 C8.28515625,5.796875 7.8453776,5.91308594 7.37597656,6.14550781 C6.90657552,6.37792969 6.48958333,6.68098958 6.125,7.0546875 C5.76953125,7.4375 5.50292969,7.87272135 5.32519531,8.36035156 C5.14746094,8.84798177 5.05859375,9.36067708 5.05859375,9.8984375 C5.05859375,10.9192708 5.3343099,11.7122396 5.88574219,12.2773438 C6.43717448,12.8424479 7.109375,13.125 7.90234375,13.125 Z M15.8183594,17.4726562 C16.0553385,17.4726562 16.2490234,17.3951823 16.3994141,17.2402344 C16.5498047,17.0852865 16.625,16.8893229 16.625,16.6523438 C16.625,16.4335938 16.5498047,16.2490234 16.3994141,16.0986328 C16.2490234,15.9482422 16.0553385,15.8730469 15.8183594,15.8730469 L6.20703125,15.8730469 C5.97005208,15.8730469 5.77408854,15.9482422 5.61914062,16.0986328 C5.46419271,16.2490234 5.38671875,16.4335938 5.38671875,16.6523438 C5.38671875,16.8893229 5.46419271,17.0852865 5.61914062,17.2402344 C5.77408854,17.3951823 5.97005208,17.4726562 6.20703125,17.4726562 L15.8183594,17.4726562 Z M10.8144531,21.8886719 C11.0514323,21.8886719 11.2473958,21.8111979 11.4023438,21.65625 C11.5572917,21.5013021 11.6347656,21.3144531 11.6347656,21.0957031 C11.6347656,20.8678385 11.5572917,20.6741536 11.4023438,20.5146484 C11.2473958,20.3551432 11.0514323,20.2753906 10.8144531,20.2753906 L6.20703125,20.2753906 C5.97005208,20.2753906 5.77408854,20.3551432 5.61914062,20.5146484 C5.46419271,20.6741536 5.38671875,20.8678385 5.38671875,21.0957031 C5.38671875,21.3144531 5.46419271,21.5013021 5.61914062,21.65625 C5.77408854,21.8111979 5.97005208,21.8886719 6.20703125,21.8886719 L10.8144531,21.8886719 Z" id="icon"></path>
                <path d="M37.8090781,24.8112031 L40.6370781,24.7832031 L45.3410781,9.07520312 L49.8770781,24.7832031 L52.7330781,24.7832031 L58.3890781,5.26720312 L55.6450781,5.26720312 L51.3610781,21.7592031 L46.8810781,5.26720312 L44.0250781,5.26720312 L39.3210781,21.8152031 L35.0650781,5.26720312 L32.3490781,5.26720312 L37.8090781,24.8112031 Z M63.6605781,24.7832031 L63.6605781,16.4392031 C63.6605781,13.3405365 65.0885781,11.7912031 67.9445781,11.7912031 L67.9445781,11.7912031 L68.6165781,11.7912031 L68.6165781,9.15920312 C67.4219115,9.15920312 66.4092448,9.40186979 65.5785781,9.88720312 C64.7479115,10.3725365 64.1085781,11.0538698 63.6605781,11.9312031 L63.6605781,11.9312031 L63.6605781,9.43920312 L61.1125781,9.43920312 L61.1125781,24.7832031 L63.6605781,24.7832031 Z M72.7960781,6.94720312 C73.2627448,6.94720312 73.6594115,6.77920312 73.9860781,6.44320312 C74.3127448,6.10720312 74.4760781,5.69653646 74.4760781,5.21120312 C74.4760781,4.72586979 74.3127448,4.31520312 73.9860781,3.97920312 C73.6594115,3.64320312 73.2627448,3.47520312 72.7960781,3.47520312 C72.3107448,3.47520312 71.9000781,3.64320312 71.5640781,3.97920312 C71.2280781,4.31520312 71.0600781,4.72586979 71.0600781,5.21120312 C71.0600781,5.69653646 71.2280781,6.10720312 71.5640781,6.44320312 C71.9000781,6.77920312 72.3107448,6.94720312 72.7960781,6.94720312 Z M74.0280781,24.7832031 L74.0280781,9.43920312 L71.4800781,9.43920312 L71.4800781,24.7832031 L74.0280781,24.7832031 Z M85.4035781,24.7832031 L85.4035781,22.6272031 L83.5275781,22.6272031 C82.7435781,22.6272031 82.1929115,22.4732031 81.8755781,22.1652031 C81.5582448,21.8572031 81.3995781,21.3298698 81.3995781,20.5832031 L81.3995781,20.5832031 L81.3995781,11.5392031 L85.4035781,11.5392031 L85.4035781,9.43920312 L81.3995781,9.43920312 L81.3995781,5.57520312 L78.8515781,5.57520312 L78.8515781,9.43920312 L76.8635781,9.43920312 L76.8635781,11.5392031 L78.8515781,11.5392031 L78.8515781,20.5832031 C78.8515781,22.0765365 79.2062448,23.1498698 79.9155781,23.8032031 C80.6249115,24.4565365 81.6889115,24.7832031 83.1075781,24.7832031 L83.1075781,24.7832031 L85.4035781,24.7832031 Z M89.7230781,6.94720312 C90.1897448,6.94720312 90.5864115,6.77920312 90.9130781,6.44320312 C91.2397448,6.10720312 91.4030781,5.69653646 91.4030781,5.21120312 C91.4030781,4.72586979 91.2397448,4.31520312 90.9130781,3.97920312 C90.5864115,3.64320312 90.1897448,3.47520312 89.7230781,3.47520312 C89.2377448,3.47520312 88.8270781,3.64320312 88.4910781,3.97920312 C88.1550781,4.31520312 87.9870781,4.72586979 87.9870781,5.21120312 C87.9870781,5.69653646 88.1550781,6.10720312 88.4910781,6.44320312 C88.8270781,6.77920312 89.2377448,6.94720312 89.7230781,6.94720312 Z M90.9550781,24.7832031 L90.9550781,9.43920312 L88.4070781,9.43920312 L88.4070781,24.7832031 L90.9550781,24.7832031 Z M97.7665781,24.7832031 L97.7665781,16.2992031 C97.7665781,14.6938698 98.1632448,13.4712031 98.9565781,12.6312031 C99.7499115,11.7912031 100.818578,11.3712031 102.162578,11.3712031 C103.487911,11.3712031 104.533245,11.7772031 105.298578,12.5892031 C106.063911,13.4012031 106.446578,14.5725365 106.446578,16.1032031 L106.446578,16.1032031 L106.446578,24.7832031 L108.966578,24.7832031 L108.966578,15.7392031 C108.966578,13.6112031 108.387911,11.9825365 107.230578,10.8532031 C106.073245,9.72386979 104.561245,9.15920312 102.694578,9.15920312 C101.649245,9.15920312 100.692578,9.37386979 99.8245781,9.80320312 C98.9565781,10.2325365 98.2705781,10.8392031 97.7665781,11.6232031 L97.7665781,11.6232031 L97.7665781,9.43920312 L95.2185781,9.43920312 L95.2185781,24.7832031 L97.7665781,24.7832031 Z M120.342078,32.3432031 C121.816745,32.3432031 123.109411,32.0352031 124.220078,31.4192031 C125.330745,30.8032031 126.184745,29.9492031 126.782078,28.8572031 C127.379411,27.7652031 127.678078,26.5192031 127.678078,25.1192031 L127.678078,25.1192031 L127.678078,9.43920312 L125.102078,9.43920312 L125.102078,12.2392031 C124.616745,11.3618698 123.874745,10.6338698 122.876078,10.0552031 C121.877411,9.47653646 120.715411,9.18720312 119.390078,9.18720312 C118.027411,9.18720312 116.790745,9.51386979 115.680078,10.1672031 C114.569411,10.8205365 113.696745,11.7398698 113.062078,12.9252031 C112.427411,14.1105365 112.110078,15.4872031 112.110078,17.0552031 C112.110078,18.6045365 112.427411,19.9858698 113.062078,21.1992031 C113.696745,22.4125365 114.569411,23.3552031 115.680078,24.0272031 C116.790745,24.6992031 118.027411,25.0352031 119.390078,25.0352031 C120.715411,25.0352031 121.872745,24.7365365 122.862078,24.1392031 C123.851411,23.5418698 124.598078,22.7952031 125.102078,21.8992031 L125.102078,21.8992031 L125.102078,25.1192031 C125.102078,26.7058698 124.658745,27.9378698 123.772078,28.8152031 C122.885411,29.6925365 121.742078,30.1312031 120.342078,30.1312031 C119.110078,30.1312031 118.055411,29.8465365 117.178078,29.2772031 C116.300745,28.7078698 115.722078,27.9565365 115.442078,27.0232031 L115.442078,27.0232031 L112.922078,27.0232031 C113.164745,28.6658698 113.958078,29.9632031 115.302078,30.9152031 C116.646078,31.8672031 118.326078,32.3432031 120.342078,32.3432031 Z M119.894078,22.7952031 C118.942078,22.7952031 118.074078,22.5665365 117.290078,22.1092031 C116.506078,21.6518698 115.880745,20.9892031 115.414078,20.1212031 C114.947411,19.2532031 114.714078,18.2312031 114.714078,17.0552031 C114.714078,15.8978698 114.947411,14.8898698 115.414078,14.0312031 C115.880745,13.1725365 116.506078,12.5192031 117.290078,12.0712031 C118.074078,11.6232031 118.942078,11.3992031 119.894078,11.3992031 C120.846078,11.3992031 121.718745,11.6278698 122.512078,12.0852031 C123.305411,12.5425365 123.935411,13.2005365 124.402078,14.0592031 C124.868745,14.9178698 125.102078,15.9258698 125.102078,17.0832031 C125.102078,18.2405365 124.868745,19.2532031 124.402078,20.1212031 C123.935411,20.9892031 123.305411,21.6518698 122.512078,22.1092031 C121.718745,22.5665365 120.846078,22.7952031 119.894078,22.7952031 Z" id="Writing"></path>
            </g>
        </g>
    </g>
</svg>